<?xml version="1.0" encoding="UTF-8" standalone="no"?>
<svg width="228px" height="126px" viewBox="0 0 228 126" version="1.1" xmlns="http://www.w3.org/2000/svg" xmlns:xlink="http://www.w3.org/1999/xlink">
    <!-- Generator: Sketch 45.2 (43514) - http://www.bohemiancoding.com/sketch -->
    <title>HYPERCUBE STUDIO</title>
    <desc>Created with Sketch.</desc>
    <defs></defs>
    <g id="Welcome" stroke="none" stroke-width="1" fill="none" fill-rule="evenodd">
        <g id="Homepage" transform="translate(-239.000000, -5824.000000)" fill="#000000">
            <g id="底部" transform="translate(85.000000, 5572.000000)">
                <path d="M168.4,275.4 L161.2,275.4 L161.2,252 L154,252 L154,306 L161.2,306 L161.2,282.6 L168.4,282.6 L168.4,306 L175.6,306 L175.6,252 L168.4,252 L168.4,275.4 Z M195.04,252 L195.04,278.928 L187.84,278.928 L187.84,252 L180.64,252 L180.64,282.528 C180.64,284.544 182.224,286.128 184.24,286.128 L187.84,286.128 L187.84,306 L195.04,306 L195.04,286.128 L198.64,286.128 C200.656,286.128 202.24,284.544 202.24,282.528 L202.24,252 L195.04,252 Z M228.88,252 L228.88,266.832 C228.88,270.936 227.512,274.464 224.776,277.416 C224.704,277.56 224.488,277.776 224.272,277.992 C222.76,279.504 220.96,280.728 218.872,281.52 C217.36,282.024 215.848,282.384 214.48,282.528 L214.48,306 L207.28,306 L207.28,252 L228.88,252 Z M221.68,259.2 L214.48,259.2 L214.48,275.256 C216.424,274.968 218.08,274.104 219.376,272.664 C220.816,271.152 221.68,269.064 221.68,266.832 L221.68,259.2 Z M251.92,252 L233.92,252 L233.92,306 L251.92,306 L251.92,298.8 L241.12,298.8 L241.12,279.072 L251.92,279.072 L251.92,271.872 L241.12,271.872 L241.12,259.2 L251.92,259.2 L251.92,252 Z M278.56,252 L278.56,266.832 C278.56,270.936 277.192,274.464 274.456,277.416 C277.048,280.944 278.56,285.192 278.56,289.224 L278.56,306 L271.36,306 L271.36,289.224 C271.36,286.704 270.28,283.824 268.552,281.592 L268.48,281.52 C267.04,282.024 265.6,282.384 264.16,282.528 L264.16,306 L256.96,306 L256.96,252 L278.56,252 Z M271.36,259.2 L264.16,259.2 L264.16,275.256 C266.104,274.968 267.76,274.104 269.056,272.664 C270.496,271.152 271.36,269.064 271.36,266.832 L271.36,259.2 Z M283.6,252 L283.6,306 L305.2,306 L305.2,286.128 L298,286.128 L298,298.8 L290.8,298.8 L290.8,259.2 L298,259.2 L298,271.872 L305.2,271.872 L305.2,252 L283.6,252 Z M324.64,298.8 L317.44,298.8 L317.44,252 L310.24,252 L310.24,306 L331.84,306 L331.84,252 L324.64,252 L324.64,298.8 Z M358.48,252 L358.48,266.832 C358.48,270.936 357.112,274.464 354.376,277.488 C356.968,280.944 358.48,285.192 358.48,289.224 L358.48,306 L336.88,306 L336.88,252 L358.48,252 Z M351.28,298.8 L351.28,289.224 C351.28,286.704 350.2,283.824 348.472,281.592 L348.4,281.52 C346.96,282.168 345.52,282.456 344.08,282.528 L344.08,298.8 L351.28,298.8 Z M351.28,259.2 L344.08,259.2 L344.08,275.328 C346.024,274.968 347.608,274.104 348.976,272.664 C350.416,271.152 351.28,269.136 351.28,266.832 L351.28,259.2 Z M381.52,252 L363.52,252 L363.52,306 L381.52,306 L381.52,298.8 L370.72,298.8 L370.72,279.072 L381.52,279.072 L381.52,271.872 L370.72,271.872 L370.72,259.2 L381.52,259.2 L381.52,252 Z M175.6,343.872 L175.6,324 L154,324 L154,345.672 C154,346.896 154.504,347.904 155.44,348.552 L168.4,358.128 L168.4,370.8 L161.2,370.8 L161.2,358.128 L154,352.8 L154,378 L175.6,378 L175.6,356.472 C175.6,355.248 175.096,354.312 174.16,353.592 L161.2,343.872 L161.2,331.2 L168.4,331.2 L168.4,343.872 L175.6,343.872 Z M198.64,324 L180.64,324 L180.64,331.2 L186.04,331.2 L186.04,378 L193.24,378 L193.24,331.2 L198.64,331.2 L198.64,324 Z M218.08,370.8 L210.88,370.8 L210.88,324 L203.68,324 L203.68,378 L225.28,378 L225.28,324 L218.08,324 L218.08,370.8 Z M230.32,378 L230.32,324 L241.12,324 C247.096,324 251.92,328.824 251.92,334.8 L251.92,367.2 C251.92,373.176 247.096,378 241.12,378 L230.32,378 Z M241.12,331.2 L237.52,331.2 L237.52,370.8 L241.12,370.8 C243.136,370.8 244.72,369.216 244.72,367.2 L244.72,334.8 C244.72,332.784 243.136,331.2 241.12,331.2 Z M278.56,331.2 L278.56,324 L256.96,324 L256.96,331.2 L264.16,331.2 L264.16,370.8 L256.96,370.8 L256.96,378 L278.56,378 L278.56,370.8 L271.36,370.8 L271.36,331.2 L278.56,331.2 Z M305.2,324 L305.2,378 L283.6,378 L283.6,324 L305.2,324 Z M290.8,370.8 L298,370.8 L298,331.2 L290.8,331.2 L290.8,370.8 Z" id="HYPERCUBE-STUDIO"></path>
            </g>
        </g>
    </g>
</svg>