<?xml version="1.0" encoding="UTF-8" standalone="no"?>
<svg width="202px" height="177px" viewBox="0 0 202 177" version="1.1" xmlns="http://www.w3.org/2000/svg" xmlns:xlink="http://www.w3.org/1999/xlink">
    <!-- Generator: Sketch 45.2 (43514) - http://www.bohemiancoding.com/sketch -->
    <title>Page 1</title>
    <desc>Created with Sketch.</desc>
    <defs></defs>
    <g id="Welcome" stroke="none" stroke-width="1" fill="none" fill-rule="evenodd">
        <g id="Homepage" transform="translate(-239.000000, -5588.000000)" fill="#050101">
            <g id="Page-1" transform="translate(239.000000, 5588.000000)">
                <polygon id="Fill-1" points="118.430604 42.8054025 139.267537 75.5623135 148.479266 61.0354157 135.463092 40.5301052 143.504932 27.8639768 183.769403 91.3051597 175.727563 103.971288 162.720601 83.4751894 153.518083 97.9744521 174.345804 130.722151 201.290113 88.2468654 145.448607 0.237999189"></polygon>
                <polygon id="Fill-2" points="94.2636308 80.9005109 89.6024955 88.2422596 95.415097 97.4171424 145.508483 176.16822 172.379099 133.821898 151.542166 101.074199 142.422554 115.453709 155.429516 135.95902 147.387676 148.625148 107.132417 85.1839653 115.174257 72.5178368 128.18122 93.0231473 137.291621 78.6620606 116.4639 45.9143613"></polygon>
                <polygon id="Fill-3" points="113.214922 0.234314497 105.348105 12.5411855 90.0105751 36.5285298 62.4767148 36.5838002 85.7271208 0.225102768 55.2270835 0.225102768 47.2773607 12.6425145 6.81944355 75.927098 0.00276351893 86.5758577 30.5028008 86.5758577 52.6938578 51.8844833 80.2185064 51.829213 64.8809763 75.8165573 57.9998142 86.5758577 86.7127759 86.5758577 141.494933 0.225102768"></polygon>
                <polygon id="Fill-4" points="58.0007353 89.9123462 64.8818975 100.671647 80.2194275 124.668203 52.694779 124.612932 30.503722 89.9123462 0.00368469191 89.9123462 6.81115299 100.570318 47.2782819 163.854901 55.2280047 176.263101 85.728042 176.263101 62.477636 139.922827 90.0114963 139.968886 105.349026 163.95623 113.215844 176.263101 141.63403 176.263101 86.7044853 89.9123462"></polygon>
            </g>
        </g>
    </g>
</svg>