<?xml version="1.0" encoding="UTF-8" standalone="no"?>
<svg width="393px" height="164px" viewBox="0 0 393 164" version="1.1" xmlns="http://www.w3.org/2000/svg" xmlns:xlink="http://www.w3.org/1999/xlink">
    <!-- Generator: Sketch 45.2 (43514) - http://www.bohemiancoding.com/sketch -->
    <title>greenrich</title>
    <desc>Created with Sketch.</desc>
    <defs>
        <polygon id="path-1" points="31.8179547 0.103533001 31.8179547 71.9808303 0.0655555394 71.9808303 0.0655555394 0.103533001 31.8179547 0.103533001"></polygon>
        <polygon id="path-3" points="0.231053233 13.5450265 14.0175467 13.5450265 14.0175467 0.306964995 0.231053233 0.306964995 0.231053233 13.5450265"></polygon>
    </defs>
    <g id="Welcome" stroke="none" stroke-width="1" fill="none" fill-rule="evenodd">
        <g id="About-us" transform="translate(-537.000000, -6374.000000)">
            <g id="greenrich" transform="translate(537.000000, 6374.000000)">
                <rect id="Rectangle-2" fill="#D8D8D8" x="0" y="0" width="392.093587" height="164"></rect>
                <g id="Page-1" transform="translate(51.000000, 41.000000)">
                    <path d="M7.29223945,7.75239247 C9.67056829,5.37406363 12.5323767,4.18734103 15.8776647,4.18734103 C19.218069,4.18734103 22.0798775,5.37406363 24.4582063,7.75239247 C26.8365351,10.1307213 28.0281414,12.9729952 28.0281414,16.2840977 C28.0281414,16.8359482 28.1990685,17.2852423 28.5458064,17.6270966 C28.8876606,17.9738345 29.3223039,18.1447616 29.8350852,18.1447616 C30.3527502,18.1447616 30.8020444,17.9738345 31.1829677,17.6270966 C31.5590074,17.2852423 31.749469,16.8359482 31.749469,16.2840977 C31.749469,11.9376652 30.196474,8.21633752 27.0953676,5.11523113 C23.9942612,2.00924112 20.253399,0.46112974 15.8776647,0.46112974 C11.4970467,0.46112974 7.7561845,2.00924112 4.65507812,5.11523113 C1.55397173,8.21633752 0.00097672642,11.9376652 0.00097672642,16.2840977 L0.00097672642,56.515459 C0.00097672642,59.343082 0.709103381,61.9802433 2.12047306,64.426943 C3.53184274,66.8736427 5.46576105,68.8026774 7.91246073,70.2189307 C10.3591604,71.635184 12.9963217,72.338427 15.8239447,72.338427 C20.7222277,72.338427 24.7854096,70.4093923 28.0281414,66.551323 L28.0281414,70.4777632 C28.0281414,70.9612427 28.1990685,71.3910024 28.5458064,71.7719257 C28.8876606,72.1479653 29.3223039,72.338427 29.8350852,72.338427 C30.3527502,72.338427 30.8020444,72.1479653 31.1829677,71.7719257 C31.5590074,71.3910024 31.749469,70.9612427 31.749469,70.4777632 L31.749469,42.4457149 C31.749469,41.967119 31.5590074,41.5373593 31.1829677,41.156436 C30.8020444,40.7803964 30.3527502,40.5899347 29.8350852,40.5899347 C29.3223039,40.5899347 28.8876606,40.7803964 28.5458064,41.156436 C28.1990685,41.5373593 28.0281414,41.967119 28.0281414,42.4457149 L28.0281414,56.515459 C28.0281414,59.8265616 26.8365351,62.6688354 24.4582063,65.0471643 C22.0798775,67.4254931 19.218069,68.6122157 15.8776647,68.6122157 C12.5323767,68.6122157 9.67056829,67.4254931 7.29223945,65.0471643 C4.91391062,62.6688354 3.72718802,59.8265616 3.72718802,56.515459 L3.72718802,16.2840977 C3.72718802,12.9729952 4.91391062,10.1307213 7.29223945,7.75239247" id="Fill-1" fill="#231916"></path>
                    <path d="M51.6595487,28.4887827 C48.3142607,28.4887827 45.4524523,27.2971765 43.0741235,24.9237313 C40.6957947,22.5405188 39.5090721,19.6787104 39.5090721,16.3383061 C39.5090721,12.9930181 40.6957947,10.1312097 43.0741235,7.75288083 C45.4524523,5.374552 48.3142607,4.18294576 51.6595487,4.18294576 C55.0048367,4.18294576 57.8666451,5.374552 60.2400903,7.75288083 C62.6233028,10.1312097 63.8100254,12.9930181 63.8100254,16.3383061 C63.8100254,19.6787104 62.6233028,22.5405188 60.2400903,24.9237313 C57.8666451,27.2971765 55.0048367,28.4887827 51.6595487,28.4887827 M64.7427991,25.2314001 C66.603463,22.5747043 67.531353,19.5956887 67.531353,16.2845861 C67.531353,11.9381535 65.9832417,8.21682588 62.8772517,5.11571949 C59.7761453,2.00972948 56.0352831,0.461618103 51.6595487,0.461618103 C47.2789307,0.461618103 43.5380685,2.00972948 40.4369622,5.11571949 C37.3358558,8.21682588 35.7828608,11.9381535 35.7828608,16.2845861 L35.7828608,70.4782515 C35.7828608,70.9617311 35.9733224,71.3914907 36.3542457,71.772414 C36.7302854,72.1484537 37.160045,72.3389154 37.6435246,72.3389154 C38.1270042,72.3389154 38.5567638,72.1484537 38.9376871,71.772414 C39.3186104,71.3914907 39.5090721,70.9617311 39.5090721,70.4782515 L39.5090721,26.4181227 C42.6785493,30.2810757 46.7124294,32.2101104 51.6058288,32.2101104 C52.0893083,32.2101104 52.8462713,32.1075541 53.8816013,31.8975579 L63.8100254,70.8884766 C64.0835088,71.8554358 64.7037301,72.3389154 65.6706892,72.3389154 C65.8074309,72.3389154 65.9441726,72.3047299 66.0857979,72.2363591 C66.5692775,72.1679882 66.9453172,71.9091557 67.2236842,71.4598616 C67.4971676,71.0154511 67.5655385,70.5466224 67.4287968,70.0631428 L57.5003727,31.0722241 C60.4647374,29.8317816 62.8772517,27.8832123 64.7427991,25.2314001" id="Fill-3" fill="#231916"></path>
                    <path d="M77.4607538,9.35471216 C79.8732681,5.90686789 83.1843707,4.18294576 87.3891779,4.18294576 C90.7686513,4.18294576 93.6451106,5.374552 96.0234395,7.75288083 C98.4066519,10.1312097 99.5933745,12.9930181 99.5933745,16.3383061 C99.5933745,19.6787104 98.4066519,22.5405188 96.0234395,24.9237313 C93.6451106,27.2971765 90.7881858,28.4887827 87.4428978,28.4887827 C84.0976099,28.4887827 81.2358015,27.2971765 78.8574726,24.9237313 C76.4791438,22.5405188 75.2924212,19.6591759 75.2924212,16.2845861 C75.2924212,13.7988174 76.0151987,11.4888594 77.4607538,9.35471216 M97.1124894,69.0278128 C101.248926,65.8583356 103.314702,61.6828301 103.314702,56.5159474 C103.314702,55.9640969 103.124241,55.5196864 102.748201,55.1680649 C102.367278,54.8262106 101.917983,54.6552835 101.400318,54.6552835 C100.887537,54.6552835 100.452894,54.8262106 100.11104,55.1680649 C99.7643016,55.5196864 99.5933745,55.9640969 99.5933745,56.5159474 C99.5933745,59.8221663 98.4066519,62.6693238 96.0234395,65.0476526 C93.6451106,67.4259815 90.7881858,68.6127041 87.4428978,68.6127041 C84.0976099,68.6127041 81.2358015,67.4259815 78.8574726,65.0476526 C76.4791438,62.6693238 75.2924212,59.8221663 75.2924212,56.5159474 L75.2924212,26.4181227 C78.4618984,30.2810757 82.4957785,32.2101104 87.3891779,32.2101104 C91.8039813,32.2101104 95.5594944,30.6571154 98.6606008,27.5608926 C101.766591,24.4549026 103.314702,20.7140404 103.314702,16.3383061 C103.314702,11.9576881 101.766591,8.21682588 98.6606008,5.11571949 C95.5594944,2.00972948 91.8186322,0.461618103 87.4428978,0.461618103 C83.0622799,0.461618103 79.3214177,2.00972948 76.2203113,5.11571949 C73.1192049,8.21682588 71.5662099,11.9381535 71.5662099,16.2845861 L71.5662099,56.5159474 C71.5662099,59.3435703 72.2743365,61.9807317 73.6857062,64.4274314 C75.1019595,66.874131 77.0309942,68.8031657 79.4776939,70.2145354 C81.9243936,71.6307887 84.5615549,72.3389154 87.3891779,72.3389154 C90.9737639,72.3389154 94.2164956,71.2352145 97.1124894,69.0278128" id="Fill-5" fill="#231916"></path>
                    <path d="M113.241661,9.35471216 C115.654175,5.90686789 118.965278,4.18294576 123.170085,4.18294576 C126.549559,4.18294576 129.426018,5.374552 131.804347,7.75288083 C134.187559,10.1312097 135.374282,12.9930181 135.374282,16.3383061 C135.374282,19.6787104 134.187559,22.5405188 131.804347,24.9237313 C129.426018,27.2971765 126.569093,28.4887827 123.223805,28.4887827 C119.878517,28.4887827 117.016709,27.2971765 114.63838,24.9237313 C112.260051,22.5405188 111.073328,19.6591759 111.073328,16.2845861 C111.073328,13.7988174 111.796106,11.4888594 113.241661,9.35471216 M139.095609,56.5159474 C139.095609,55.9640969 138.905148,55.5196864 138.529108,55.1680649 C138.148185,54.8262106 137.698891,54.6552835 137.181226,54.6552835 C136.668444,54.6552835 136.233801,54.8262106 135.891947,55.1680649 C135.545209,55.5196864 135.374282,55.9640969 135.374282,56.5159474 C135.374282,59.8221663 134.187559,62.6693238 131.804347,65.0476526 C129.426018,67.4259815 126.569093,68.6127041 123.223805,68.6127041 C119.878517,68.6127041 117.016709,67.4259815 114.63838,65.0476526 C112.260051,62.6693238 111.073328,59.8221663 111.073328,56.5159474 L111.073328,26.4181227 C114.242806,30.2810757 118.276686,32.2101104 123.170085,32.2101104 C127.584889,32.2101104 131.340402,30.6571154 134.441508,27.5608926 C137.547498,24.4549026 139.095609,20.7140404 139.095609,16.3383061 C139.095609,11.9576881 137.547498,8.21682588 134.441508,5.11571949 C131.340402,2.00972948 127.59954,0.461618103 123.223805,0.461618103 C118.843187,0.461618103 115.102325,2.00972948 112.001219,5.11571949 C108.900112,8.21682588 107.347117,11.9381535 107.347117,16.2845861 L107.347117,56.5159474 C107.347117,59.3435703 108.055244,61.9807317 109.466614,64.4274314 C110.882867,66.874131 112.811902,68.8031657 115.258601,70.2145354 C117.705301,71.6307887 120.342462,72.3389154 123.170085,72.3389154 C126.754671,72.3389154 129.997403,71.2352145 132.893397,69.0278128 C137.029833,65.8583356 139.095609,61.6828301 139.095609,56.5159474" id="Fill-7" fill="#231916"></path>
                    <path d="M144.992595,72.3389154 C145.476075,72.3389154 145.905834,72.1484537 146.286758,71.772414 C146.662797,71.3914907 146.853259,70.9617311 146.853259,70.4782515 L146.853259,16.2845861 C146.853259,12.9734835 148.044865,10.1312097 150.423194,7.75288083 C152.801523,5.374552 155.663331,4.18294576 159.008619,4.18294576 C162.349024,4.18294576 165.210832,5.374552 167.589161,7.75288083 C169.96749,10.1312097 171.154212,12.9734835 171.154212,16.2845861 L171.154212,70.4782515 C171.154212,70.9617311 171.330023,71.3914907 171.671877,71.772414 C172.018615,72.1484537 172.448375,72.3389154 172.96604,72.3389154 C173.483705,72.3389154 173.932999,72.1484537 174.309039,71.772414 C174.689962,71.3914907 174.880424,70.9617311 174.880424,70.4782515 L174.880424,16.2845861 C174.880424,11.9381535 173.327429,8.21682588 170.226322,5.11571949 C167.125216,2.00972948 163.384354,0.461618103 159.008619,0.461618103 C154.628001,0.461618103 150.887139,2.00972948 147.786033,5.11571949 C144.684926,8.21682588 143.131931,11.9381535 143.131931,16.2845861 L143.131931,70.4782515 C143.131931,70.9617311 143.322393,71.3914907 143.698433,71.772414 C144.079356,72.1484537 144.509116,72.3389154 144.992595,72.3389154" id="Fill-9" fill="#231916"></path>
                    <path d="M194.789527,28.4887827 C191.439355,28.4887827 188.58243,27.2971765 186.204101,24.9237313 C183.820889,22.5405188 182.63905,19.6787104 182.63905,16.3383061 C182.63905,12.9930181 183.820889,10.1312097 186.204101,7.75288083 C188.58243,5.374552 191.439355,4.18294576 194.789527,4.18294576 C198.129931,4.18294576 200.991739,5.374552 203.374952,7.75288083 C205.748397,10.1312097 206.940003,12.9930181 206.940003,16.3383061 C206.940003,19.6787104 205.748397,22.5405188 203.374952,24.9237313 C200.991739,27.2971765 198.129931,28.4887827 194.789527,28.4887827 M207.867893,25.2314001 C209.728557,22.5747043 210.661331,19.5956887 210.661331,16.2845861 C210.661331,11.9381535 209.108336,8.21682588 206.00723,5.11571949 C202.906123,2.00972948 199.165261,0.461618103 194.789527,0.461618103 C190.413792,0.461618103 186.67293,2.00972948 183.562056,5.11571949 C180.465834,8.21682588 178.912839,11.9381535 178.912839,16.2845861 L178.912839,70.4782515 C178.912839,70.9617311 179.1033,71.3914907 179.484224,71.772414 C179.860263,72.1484537 180.290023,72.3389154 180.773503,72.3389154 C181.256982,72.3389154 181.686742,72.1484537 182.067665,71.772414 C182.448588,71.3914907 182.63905,70.9617311 182.63905,70.4782515 L182.63905,26.4181227 C185.803644,30.2810757 189.837524,32.2101104 194.730923,32.2101104 C195.219286,32.2101104 195.971366,32.1075541 197.011579,31.8975579 L206.940003,70.8884766 C207.21837,71.8554358 207.838592,72.3389154 208.800667,72.3389154 C208.932525,72.3389154 209.079034,72.3047299 209.210892,72.2363591 C209.699255,72.1679882 210.080179,71.9091557 210.358546,71.4598616 C210.622262,71.0154511 210.7004,70.5466224 210.558775,70.0631428 L200.625467,31.0722241 C203.594715,29.8317816 206.00723,27.8832123 207.867893,25.2314001" id="Fill-11" fill="#231916"></path>
                    <path d="M216.613502,0.460153013 C216.090953,0.460153013 215.641659,0.650614665 215.270503,1.02665434 C214.884696,1.40757764 214.694234,1.83733727 214.694234,2.32081684 L214.694234,70.4767864 C214.694234,70.960266 214.884696,71.3900256 215.270503,71.7709489 C215.641659,72.1469886 216.071419,72.3374503 216.554898,72.3374503 C217.043261,72.3374503 217.473021,72.1469886 217.853944,71.7709489 C218.2251,71.3900256 218.415562,70.960266 218.415562,70.4767864 L218.415562,2.32081684 C218.415562,1.83733727 218.244635,1.40757764 217.902781,1.02665434 C217.556043,0.650614665 217.126283,0.460153013 216.613502,0.460153013" id="Fill-13" fill="#231916"></path>
                    <path d="M229.843261,7.75239247 C232.226474,5.37406363 235.088282,4.18734103 238.428686,4.18734103 C241.773974,4.18734103 244.635783,5.37406363 247.014112,7.75239247 C249.397324,10.1307213 250.579163,12.9729952 250.579163,16.2840977 C250.579163,16.8359482 250.75009,17.2852423 251.096828,17.6270966 C251.44845,17.9738345 251.878209,18.1447616 252.390991,18.1447616 C252.908656,18.1447616 253.353066,17.9738345 253.738873,17.6270966 C254.119796,17.2852423 254.310258,16.8359482 254.310258,16.2840977 C254.310258,11.9376652 252.752379,8.21633752 249.656157,5.11523113 C246.545283,2.00924112 242.804421,0.46112974 238.428686,0.46112974 C234.048068,0.46112974 230.31209,2.00924112 227.210983,5.11523113 C224.109877,8.21633752 222.556882,11.9376652 222.556882,16.2840977 L222.556882,56.515459 C222.556882,60.8618916 224.109877,64.5832192 227.210983,67.6843256 C230.31209,70.7903156 234.028534,72.338427 238.37985,72.338427 C241.964436,72.338427 245.202284,71.2396098 248.098278,69.0273244 C252.239598,65.8578472 254.310258,61.6823418 254.310258,56.515459 C254.310258,55.9684922 254.119796,55.519198 253.738873,55.1675765 C253.353066,54.8257223 252.908656,54.6547952 252.390991,54.6547952 C251.878209,54.6547952 251.44845,54.8257223 251.096828,55.1675765 C250.75009,55.519198 250.579163,55.9684922 250.579163,56.515459 C250.579163,59.8265616 249.397324,62.6688354 247.014112,65.0471643 C244.635783,67.4254931 241.773974,68.6122157 238.428686,68.6122157 C235.088282,68.6122157 232.226474,67.4254931 229.843261,65.0471643 C227.469816,62.6688354 226.27821,59.8265616 226.27821,56.515459 L226.27821,16.2840977 C226.27821,12.9729952 227.469816,10.1307213 229.843261,7.75239247" id="Fill-15" fill="#231916"></path>
                    <g id="Group-19" transform="translate(258.372348, 0.357597)">
                        <mask id="mask-2" fill="white">
                            <use xlink:href="#path-1"></use>
                        </mask>
                        <g id="Clip-18"></g>
                        <path d="M31.2475465,0.670034324 C30.8666232,0.293994652 30.417329,0.103533001 29.9045477,0.103533001 C29.3868827,0.103533001 28.957123,0.293994652 28.6152688,0.670034324 C28.2636473,1.05095763 28.0927202,1.48071725 28.0927202,1.96419683 L28.0927202,15.926501 C28.0927202,19.3010908 26.9059976,22.1824337 24.5227851,24.5656462 C22.1493399,26.9390914 19.2875315,28.1306976 15.9373599,28.1306976 C12.6018391,28.1306976 9.74003073,26.9390914 7.35193463,24.5656462 C4.97848943,22.1824337 3.7868832,19.3010908 3.7868832,15.926501 L3.7868832,1.96419683 C3.7868832,1.48071725 3.59642155,1.05095763 3.22526551,0.670034324 C2.8443422,0.293994652 2.41458258,0.103533001 1.92621937,0.103533001 C1.44762342,0.103533001 1.01298017,0.293994652 0.636940495,0.670034324 C0.256017191,1.05095763 0.0655555394,1.48071725 0.0655555394,1.96419683 L0.0655555394,70.1201664 C0.0655555394,70.603646 0.256017191,71.0334056 0.636940495,71.4143289 C1.01298017,71.7903686 1.44762342,71.9808303 1.92621937,71.9808303 C2.41458258,71.9808303 2.8443422,71.7903686 3.22526551,71.4143289 C3.59642155,71.0334056 3.7868832,70.603646 3.7868832,70.1201664 L3.7868832,26.0600376 C6.96124407,29.9229906 11.0000078,31.8520253 15.8885235,31.8520253 C20.7819229,31.8520253 24.8548721,29.9229906 28.0927202,26.0600376 L28.0927202,70.1201664 C28.0927202,70.603646 28.2636473,71.0334056 28.6152688,71.4143289 C28.957123,71.7903686 29.3868827,71.9808303 29.9045477,71.9808303 C30.417329,71.9808303 30.8666232,71.7903686 31.2475465,71.4143289 C31.6284698,71.0334056 31.8189315,70.603646 31.8189315,70.1201664 L31.8189315,1.96419683 C31.8189315,1.48071725 31.6284698,1.05095763 31.2475465,0.670034324" id="Fill-17" fill="#231916" mask="url(#mask-2)"></path>
                    </g>
                    <path d="M85.1202424,94.5584647 L85.1202424,94.9100862 L85.5793038,94.9100862 C85.8918563,94.9100862 86.1799906,94.9882243 86.453474,95.1396169 C86.6537029,95.2568241 86.7806773,95.3935658 86.8490482,95.549842 C86.9320699,95.7598382 86.971139,96.1944814 86.971139,96.8488881 L86.971139,105.204783 C86.971139,105.98128 86.8930009,106.46476 86.7416083,106.669872 C86.5023103,106.982425 86.1116197,107.138701 85.5793038,107.138701 L85.1202424,107.138701 L85.1202424,107.490322 L90.6729321,107.490322 L90.6729321,107.138701 L90.2041034,107.138701 C89.9013182,107.138701 89.6034167,107.065446 89.3250497,106.90917 C89.1248207,106.796847 88.988079,106.660105 88.9245918,106.498945 C88.8415701,106.288949 88.802501,105.854306 88.802501,105.204783 L88.802501,101.141601 L91.1564117,101.141601 C91.591055,101.141601 91.9182583,101.195321 92.1380218,101.317412 C92.3529016,101.434619 92.5287123,101.610429 92.6508031,101.844844 C92.7728939,102.079258 92.8412648,102.450414 92.8461484,102.953428 L93.1977699,102.953428 L93.1977699,98.5728103 L92.8461484,98.5728103 C92.7631267,99.2809369 92.5970832,99.7497656 92.3431343,99.9890636 C92.0940691,100.228362 91.6984949,100.350452 91.1564117,100.350452 L88.802501,100.350452 L88.802501,95.2665913 L91.6545422,95.2665913 C92.3284834,95.2665913 92.8266139,95.3251949 93.1489336,95.457053 C93.4663697,95.5840274 93.7398531,95.78914 93.9596165,96.0723906 C94.1744963,96.3507577 94.3698416,96.7951682 94.5358851,97.4007386 L94.8679721,97.4007386 L94.7458813,94.5584647 L85.1202424,94.5584647 Z" id="Fill-20" fill="#231916"></path>
                    <path d="M105.65152,105.689727 C104.860372,106.637152 103.854344,107.110864 102.643203,107.110864 C101.505316,107.110864 100.587194,106.676221 99.8937179,105.811818 C98.990246,104.673932 98.5409518,103.052566 98.5409518,100.937953 C98.5409518,98.8770606 98.9755951,97.3142983 99.8497652,96.2447829 C100.548125,95.3901472 101.476015,94.9603876 102.633435,94.9603876 C103.864111,94.9603876 104.835954,95.3950309 105.534313,96.2545501 C106.403599,97.3436001 106.838243,98.9942677 106.838243,101.206553 C106.838243,103.247911 106.442669,104.742303 105.65152,105.689727 M102.81413,94.2620282 C101.124393,94.2620282 99.6690708,94.8236459 98.4530464,95.9517649 C97.0563276,97.2459274 96.3579682,98.9210132 96.3579682,100.977022 C96.3579682,102.984195 96.9635386,104.625096 98.1746794,105.889956 C99.3858202,107.154817 100.880212,107.789689 102.662737,107.789689 C104.425728,107.789689 105.925004,107.140166 107.165446,105.84112 C108.401005,104.546957 109.021226,102.915824 109.021226,100.947721 C109.021226,99.043104 108.405889,97.45104 107.175213,96.176412 C105.949422,94.901784 104.494099,94.2620282 102.81413,94.2620282" id="Fill-22" fill="#231916"></path>
                    <path d="M119.758868,105.689727 C118.96772,106.637152 117.961692,107.110864 116.750551,107.110864 C115.612665,107.110864 114.694542,106.676221 114.001066,105.811818 C113.097594,104.673932 112.6483,103.052566 112.6483,100.937953 C112.6483,98.8770606 113.082943,97.3142983 113.957113,96.2447829 C114.655473,95.3901472 115.583363,94.9603876 116.740784,94.9603876 C117.971459,94.9603876 118.943302,95.3950309 119.641661,96.2545501 C120.510948,97.3436001 120.945591,98.9942677 120.945591,101.206553 C120.945591,103.247911 120.550017,104.742303 119.758868,105.689727 M116.921478,94.2620282 C115.231741,94.2620282 113.776419,94.8236459 112.560394,95.9517649 C111.163676,97.2459274 110.465316,98.9210132 110.465316,100.977022 C110.465316,102.984195 111.070887,104.625096 112.282027,105.889956 C113.493168,107.154817 114.98756,107.789689 116.770085,107.789689 C118.533077,107.789689 120.032352,107.140166 121.272794,105.84112 C122.508353,104.546957 123.128574,102.915824 123.128574,100.947721 C123.128574,99.043104 122.513237,97.45104 121.282561,96.176412 C120.05677,94.901784 118.601447,94.2620282 116.921478,94.2620282" id="Fill-24" fill="#231916"></path>
                    <path d="M133.613244,105.269735 C132.641401,106.305065 131.41561,106.82273 129.940753,106.82273 C129.393786,106.82273 128.719845,106.734825 127.909162,106.559014 L127.909162,95.5610744 C128.641707,95.3754963 129.29123,95.2827073 129.862615,95.2827073 C131.391191,95.2827073 132.641401,95.8003723 133.613244,96.8259351 C134.585087,97.8563814 135.07345,99.2677511 135.07345,101.05516 C135.07345,102.827919 134.585087,104.234405 133.613244,105.269735 M133.896495,95.2143365 C132.885583,94.7796932 131.41561,94.5599298 129.481691,94.5599298 L124.217136,94.5599298 L124.217136,94.9115513 L124.705499,94.9115513 C125.193862,94.9115513 125.565018,95.048293 125.8092,95.3315437 C125.989894,95.5366562 126.0778,96.0396703 126.0778,96.8454696 L126.0778,105.201364 C126.0778,105.933909 126.009429,106.402738 125.867804,106.612734 C125.638273,106.964355 125.252466,107.140166 124.705499,107.140166 L124.217136,107.140166 L124.217136,107.491788 L129.999356,107.491788 C132.509543,107.491788 134.379974,106.817846 135.605766,105.469964 C136.6997,104.263707 137.246666,102.754664 137.246666,100.957488 C137.246666,99.6193726 136.938998,98.4375337 136.328544,97.4119709 C135.713206,96.3864082 134.902523,95.6538634 133.896495,95.2143365" id="Fill-26" fill="#231916"></path>
                    <path d="M144.27226,106.395412 C143.901103,106.551688 143.515297,106.63471 143.114839,106.63471 C142.367643,106.63471 141.776724,106.375878 141.337197,105.863096 C140.902553,105.345431 140.68279,104.749628 140.68279,104.06592 C140.68279,103.450582 140.873252,102.879197 141.259059,102.351765 C141.639982,101.819449 142.21625,101.340853 142.978097,100.901326 C143.368788,101.682707 143.725293,102.337114 144.047612,102.864546 C144.374816,103.396862 144.955968,104.231963 145.795953,105.374733 C145.151313,105.892398 144.643416,106.239136 144.27226,106.395412 M143.940173,95.5342144 C144.223423,95.1484074 144.638532,94.9579458 145.190382,94.9579458 C145.610375,94.9579458 145.961996,95.1044548 146.245247,95.4072399 C146.528498,95.7100251 146.670123,96.0860648 146.670123,96.5402426 C146.670123,97.1311621 146.474778,97.6585943 146.084087,98.1371903 C145.693396,98.6109026 145.102477,99.0357786 144.316212,99.4118183 C143.998776,98.6646226 143.783896,98.0981212 143.676456,97.7123143 C143.569016,97.3265074 143.515297,96.9748859 143.515297,96.667217 C143.515297,96.3009446 143.656922,95.9200213 143.940173,95.5342144 M151.592824,105.960769 C151.290039,106.200067 150.913999,106.317274 150.479356,106.317274 C150.025178,106.317274 149.575884,106.185416 149.131473,105.9217 C148.687063,105.662867 148.179165,105.198922 147.617548,104.534748 C148.315907,103.655695 148.945895,102.713154 149.502629,101.702242 C150.064247,100.69133 150.474472,100.08576 150.738188,99.8855306 C151.001905,99.6853017 151.41213,99.5632109 151.96398,99.5192582 L151.96398,99.1676367 L147.959402,99.1676367 L147.959402,99.5192582 C148.218234,99.5534436 148.418463,99.6511162 148.560088,99.8220434 C148.75055,100.051574 148.848223,100.31529 148.848223,100.603425 C148.848223,101.521547 148.286605,102.644783 147.168253,103.982898 C146.2892,102.786408 145.449215,101.467827 144.638532,100.03204 C145.810604,99.4264692 146.62617,98.8746187 147.085232,98.3618374 C147.544293,97.8539396 147.778707,97.2630201 147.778707,96.5890789 C147.778707,95.9346722 147.539409,95.3828218 147.060813,94.9335276 C146.587101,94.4891171 145.96688,94.26447 145.209917,94.26447 C144.418768,94.26447 143.705758,94.4891171 143.085537,94.928644 C142.284621,95.5049126 141.884163,96.3302464 141.884163,97.4192964 C141.884163,97.8051033 141.937883,98.2104448 142.045323,98.6353208 C142.152763,99.0601968 142.357876,99.5973963 142.655777,100.26157 C141.1272,101.08202 140.09187,101.873169 139.535136,102.639899 C138.983286,103.411513 138.704919,104.178243 138.704919,104.944973 C138.704919,105.721471 139.012588,106.390529 139.632809,106.947263 C140.248147,107.50888 141.083248,107.787247 142.133229,107.787247 C142.846239,107.787247 143.525064,107.655389 144.159936,107.381906 C144.789925,107.108422 145.498051,106.629827 146.2892,105.926583 C146.924072,106.600525 147.514991,107.084004 148.047307,107.362371 C148.584507,107.645622 149.116823,107.787247 149.639371,107.787247 C150.332847,107.787247 150.938417,107.572368 151.460966,107.147492 C151.983515,106.722616 152.359554,106.063325 152.593969,105.164737 L152.242347,104.905904 C152.115373,105.369849 151.900493,105.721471 151.592824,105.960769" id="Fill-28" fill="#231916"></path>
                    <path d="M163.124545,106.409575 C162.484789,106.76608 161.742477,106.946774 160.902492,106.946774 C159.935533,106.946774 159.076014,106.717244 158.323934,106.263066 C157.566971,105.804004 157.005353,105.144714 156.629314,104.285195 C156.253274,103.430559 156.067696,102.414764 156.067696,101.242692 C156.067696,99.8264386 156.263041,98.639716 156.663499,97.6874078 C157.059073,96.7350995 157.60604,96.0367401 158.299516,95.6020969 C158.992992,95.1674536 159.769489,94.9476902 160.624125,94.9476902 C161.649688,94.9476902 162.523858,95.2407081 163.256403,95.8169767 C163.988947,96.3932453 164.550565,97.3455535 164.946139,98.6592506 L165.244041,98.6592506 L164.946139,94.2639817 L164.614052,94.2639817 C164.540798,94.5667669 164.428474,94.8060648 164.257547,94.976992 C164.130573,95.0990828 163.984064,95.1576863 163.813137,95.1576863 C163.695929,95.1576863 163.505468,95.0893155 163.236868,94.9476902 C162.328512,94.4935124 161.405506,94.2639817 160.472732,94.2639817 C159.271359,94.2639817 158.162774,94.5569996 157.146979,95.1528027 C156.136067,95.7486058 155.340035,96.5837069 154.758883,97.6678732 C154.177731,98.7520396 153.889596,99.9338785 153.889596,101.223157 C153.889596,102.829872 154.329123,104.221708 155.208177,105.403546 C156.385132,106.990727 158.040683,107.786759 160.184598,107.786759 C161.376204,107.786759 162.401767,107.523043 163.26617,106.985843 C164.130573,106.453527 164.887536,105.608659 165.537059,104.461005 L165.244041,104.270544 C164.472427,105.335176 163.769184,106.05307 163.124545,106.409575" id="Fill-30" fill="#231916"></path>
                    <path d="M176.42121,105.675076 C176.094006,106.046232 175.72285,106.305065 175.322392,106.451574 C174.921935,106.598083 174.228459,106.671337 173.237082,106.671337 L172.289657,106.671337 C171.454556,106.671337 170.961309,106.637152 170.805033,106.578548 C170.643873,106.515061 170.526666,106.412505 170.448528,106.280647 C170.350855,106.085302 170.297135,105.723913 170.297135,105.191597 L170.297135,97.065233 C170.297135,96.2985028 170.350855,95.8101396 170.448528,95.605027 C170.551084,95.3999145 170.741545,95.233871 171.019913,95.1020129 C171.293396,94.9701549 171.776876,94.9066677 172.460584,94.9115513 L172.460584,94.5599298 L166.605109,94.5599298 L166.605109,94.9115513 L167.093472,94.9115513 C167.581836,94.9115513 167.952992,95.048293 168.197173,95.3315437 C168.377868,95.5366562 168.465773,96.0396703 168.465773,96.8454696 L168.465773,105.191597 C168.465773,105.933909 168.397402,106.397854 168.265544,106.602967 C168.03113,106.964355 167.640439,107.140166 167.093472,107.140166 L166.605109,107.140166 L166.605109,107.491788 L176.621439,107.491788 L177.730023,103.980456 L177.412587,103.916969 C177.085384,104.717885 176.748413,105.30392 176.42121,105.675076" id="Fill-32" fill="#231916"></path>
                    <g id="Group-36" transform="translate(178.022495, 94.252476)">
                        <mask id="mask-4" fill="white">
                            <use xlink:href="#path-3"></use>
                        </mask>
                        <g id="Clip-35"></g>
                        <path d="M9.44158337,0.658586506 L9.92994658,0.658586506 C10.4231934,0.658586506 10.7845822,0.795328205 11.0336474,1.07857887 C11.2143418,1.28369141 11.3022472,1.78670552 11.3022472,2.59250482 L11.3022472,7.83264206 C11.3022472,9.20494268 11.1752728,10.1767855 10.9408584,10.7530541 C10.6917932,11.3342063 10.2327318,11.803035 9.56367418,12.1693074 C8.89950021,12.5404634 8.14253724,12.7260414 7.29766888,12.7260414 C6.63837855,12.7260414 6.07676086,12.6039506 5.6274667,12.3695363 C5.16840529,12.1400056 4.82655104,11.8372204 4.5774858,11.4758316 C4.33818783,11.1144428 4.16726071,10.6065451 4.07935533,9.95702203 C3.98656632,9.30749896 3.94261363,8.73123037 3.94261363,8.23309989 L3.94261363,2.59250482 C3.94261363,1.86972727 4.02075174,1.39113132 4.17702797,1.16648424 C4.40655868,0.824629997 4.78748198,0.658586506 5.31979788,0.658586506 L5.81792836,0.658586506 L5.81792836,0.306964995 L0.231053233,0.306964995 L0.231053233,0.658586506 L0.714532811,0.658586506 C1.20777965,0.658586506 1.55940116,0.780677309 1.77916461,1.02974255 C1.99892805,1.27880778 2.11125159,1.79647279 2.11125159,2.59250482 L2.11125159,7.65194767 C2.11125159,9.20982631 2.20892423,10.2695745 2.41403678,10.8360758 C2.7217056,11.6614096 3.23937061,12.3207 3.96703179,12.8090632 C4.6995766,13.30231 5.76909203,13.5464916 7.18046171,13.5464916 C8.47950785,13.5464916 9.50995422,13.2876591 10.2620336,12.7748777 C11.0141129,12.26698 11.5220106,11.6516424 11.7808432,10.9337484 C12.034792,10.2207382 12.1617665,9.21470995 12.1617665,7.91566381 L12.1617665,2.67064293 C12.1617665,1.95274901 12.2252537,1.4936876 12.3619954,1.29834231 C12.6354788,0.873466318 13.0261693,0.658586506 13.5340671,0.658586506 L14.0175467,0.658586506 L14.0175467,0.306964995 L9.44158337,0.306964995 L9.44158337,0.658586506 Z" id="Fill-34" fill="#231916" mask="url(#mask-4)"></path>
                    </g>
                    <path d="M201.094296,106.037442 C200.493609,106.555107 199.614555,106.813939 198.462018,106.813939 C197.744124,106.813939 197.021347,106.730918 196.279034,106.555107 L196.279034,101.256366 C196.449962,101.222181 196.679492,101.202646 196.952976,101.187995 C197.24111,101.173344 197.573197,101.168461 197.963888,101.168461 C198.88201,101.168461 199.643857,101.300319 200.254311,101.568919 C200.874532,101.837518 201.323826,102.203791 201.592426,102.667736 C201.86591,103.126797 202.002651,103.61516 202.002651,104.113291 C202.002651,104.880021 201.70475,105.519777 201.094296,106.037442 L201.094296,106.037442 Z M196.279034,95.4057749 C196.791816,95.2690332 197.363201,95.1957787 197.993189,95.1957787 C199.175028,95.1957787 200.083384,95.4643784 200.693838,95.9966943 C201.314059,96.5338939 201.616844,97.1785333 201.616844,97.9354963 C201.616844,98.4238595 201.494754,98.8731537 201.245688,99.2882624 C200.996623,99.7033711 200.645002,100.01104 200.181057,100.211269 C199.712228,100.411498 199.013868,100.50917 198.081095,100.50917 C197.719706,100.50917 197.382735,100.499403 197.089717,100.474985 C196.782049,100.450567 196.518332,100.421265 196.279034,100.377312 L196.279034,95.4057749 Z M201.27499,100.890094 C202.046604,100.645912 202.627756,100.260105 203.02333,99.7522074 C203.423788,99.2394261 203.61425,98.6582738 203.61425,98.0087508 C203.61425,97.2517878 203.365185,96.5827302 202.857287,96.001578 C202.36404,95.4204258 201.626612,95.0150843 200.674303,94.7855536 C200.044315,94.634161 199.214097,94.5560229 198.164116,94.5560229 L192.577241,94.5560229 L192.577241,94.912528 L193.060721,94.912528 C193.558851,94.912528 193.92024,95.0492697 194.169305,95.3325204 C194.359767,95.5425166 194.447672,96.0455307 194.447672,96.8464463 L194.447672,105.202341 C194.447672,105.930002 194.379302,106.398831 194.227909,106.623478 C193.998378,106.965332 193.607688,107.141143 193.060721,107.141143 L192.577241,107.141143 L192.577241,107.492764 L198.681781,107.492764 C200.141987,107.492764 201.216387,107.360906 201.93428,107.087423 C202.637523,106.813939 203.204025,106.38418 203.604483,105.798144 C204.014708,105.212108 204.214937,104.59677 204.214937,103.952131 C204.214937,103.107263 203.907268,102.394252 203.287047,101.808217 C202.84752,101.388224 202.173578,101.080555 201.27499,100.890094 L201.27499,100.890094 Z" id="Fill-37" fill="#231916"></path>
                </g>
            </g>
        </g>
    </g>
</svg>