<?xml version="1.0" encoding="UTF-8" standalone="no"?>
<svg width="393px" height="164px" viewBox="0 0 393 164" version="1.1" xmlns="http://www.w3.org/2000/svg" xmlns:xlink="http://www.w3.org/1999/xlink">
    <!-- Generator: Sketch 45.2 (43514) - http://www.bohemiancoding.com/sketch -->
    <title>guiguji</title>
    <desc>Created with Sketch.</desc>
    <defs>
        <polygon id="path-1" points="5.81108428 0.298035035 5.81108428 13.919104 0.316137522 13.919104 0.316137522 0.298035035 5.81108428 0.298035035"></polygon>
        <polygon id="path-3" points="1.53673503e-15 55.394452 1.53673503e-15 0.451299209 54.9425213 0.451299209 54.9425213 55.394452 0 55.394452"></polygon>
        <polygon id="path-5" points="0.695853395 0.0772267934 20.1625596 0.0772267934 20.1625596 31.1964543 0.695853395 31.1964543 0.695853395 0.0772267934"></polygon>
    </defs>
    <g id="Welcome" stroke="none" stroke-width="1" fill="none" fill-rule="evenodd">
        <g id="About-us" transform="translate(-84.000000, -6145.000000)">
            <g id="guiguji" transform="translate(84.000000, 6145.000000)">
                <rect id="Rectangle-2" fill="#D8D8D8" x="0" y="0" width="392.093587" height="164"></rect>
                <path d="M333.953112,59.1628115 C332.06498,59.1628115 330.526269,57.6156804 330.526269,55.7149192 L330.526269,37.8987042 C330.526269,35.6948316 332.309154,33.9014225 334.500396,33.9014225 C336.691639,33.9014225 338.472419,35.6948316 338.472419,37.8987042 L338.472419,55.7149192 C338.472419,56.1927407 338.08932,56.5800497 337.611498,56.5800497 C337.137887,56.5800497 336.752683,56.1927407 336.752683,55.7149192 L336.752683,37.8987042 C336.752683,36.6483696 335.742311,35.6316834 334.500396,35.6316834 C333.258482,35.6316834 332.246005,36.6483696 332.246005,37.8987042 L332.246005,55.7149192 C332.246005,56.6621424 333.012204,57.4325505 333.953112,57.4325505 C334.428828,57.4325505 334.811928,57.8198596 334.811928,58.297681 C334.811928,58.7755025 334.428828,59.1628115 333.953112,59.1628115" id="Fill-1" fill="#000000"></path>
                <path d="M362.671866,59.1628115 C360.783734,59.1628115 359.245023,57.6177853 359.245023,55.7170242 L359.245023,37.905019 C359.245023,35.7011465 361.027907,33.9077373 363.21915,33.9077373 C365.410393,33.9077373 367.191172,35.7011465 367.191172,37.905019 L367.191172,55.7170242 C367.191172,56.1948456 366.808073,56.5800497 366.332357,56.5800497 C365.858745,56.5800497 365.471436,56.1948456 365.471436,55.7170242 L365.471436,37.905019 C365.471436,36.6546844 364.46317,35.6379983 363.21915,35.6379983 C361.977235,35.6379983 360.964759,36.6546844 360.964759,37.905019 L360.964759,55.7170242 C360.964759,56.6642473 361.730957,57.4325505 362.671866,57.4325505 C363.147582,57.4325505 363.530681,57.8198596 363.530681,58.297681 C363.530681,58.7755025 363.147582,59.1628115 362.671866,59.1628115" id="Fill-3" fill="#000000"></path>
                <path d="M337.61213,56.5964682 C337.136413,56.5964682 336.753314,56.2112642 336.753314,55.7355476 L336.753314,40.3631683 C336.753314,39.8874518 337.136413,39.5022477 337.61213,39.5022477 C338.089951,39.5022477 338.47305,39.8874518 338.47305,40.3631683 L338.47305,55.7355476 C338.47305,56.2112642 338.089951,56.5964682 337.61213,56.5964682" id="Fill-5" fill="#000000"></path>
                <path d="M354.819596,40.9338177 L341.345873,40.9338177 C340.868051,40.9338177 340.480742,40.5486136 340.480742,40.0728971 C340.480742,39.5992855 340.868051,39.2140814 341.345873,39.2140814 L354.819596,39.2140814 C355.297418,39.2140814 355.682622,39.5992855 355.682622,40.0728971 C355.682622,40.5486136 355.297418,40.9338177 354.819596,40.9338177" id="Fill-7" fill="#000000"></path>
                <path d="M348.058738,46.7078795 C347.583022,46.7078795 347.199923,46.3226754 347.199923,45.8490639 L347.199923,34.7623431 C347.199923,34.2866266 347.583022,33.9014225 348.058738,33.9014225 C348.534455,33.9014225 348.917554,34.2866266 348.917554,34.7623431 L348.917554,45.8490639 C348.917554,46.3226754 348.534455,46.7078795 348.058738,46.7078795" id="Fill-9" fill="#000000"></path>
                <path d="M352.036233,59.1628115 L343.930108,59.1628115 C343.456497,59.1628115 343.069188,58.7776074 343.069188,58.3018909 C343.069188,57.8282793 343.456497,57.4430752 343.930108,57.4430752 L352.036233,57.4430752 C353.097123,57.4430752 353.958044,56.5842596 353.958044,55.5275795 L353.958044,48.7812457 C353.958044,47.7245657 353.097123,46.86575 352.036233,46.86575 L343.930108,46.86575 C342.871323,46.86575 342.010403,47.7245657 342.010403,48.7812457 C342.010403,49.2548573 341.625199,49.6421663 341.147377,49.6421663 C340.673766,49.6421663 340.286456,49.2548573 340.286456,48.7812457 C340.286456,46.7773425 341.91989,45.1460138 343.930108,45.1460138 L352.036233,45.1460138 C354.046451,45.1460138 355.68199,46.7773425 355.68199,48.7812457 L355.68199,55.5275795 C355.68199,57.5314827 354.046451,59.1628115 352.036233,59.1628115" id="Fill-11" fill="#000000"></path>
                <path d="M379.710937,55.2160484 C379.23522,55.2160484 378.850016,54.8287393 378.850016,54.3509179 L378.850016,38.858557 C378.850016,37.1093516 377.818595,35.6337884 376.59773,35.6337884 L372.979337,35.6337884 C371.758472,35.6337884 370.724946,37.1093516 370.724946,38.858557 L370.724946,54.3509179 C370.724946,54.8287393 370.339742,55.2160484 369.864026,55.2160484 C369.390414,55.2160484 369.00521,54.8287393 369.00521,54.3509179 L369.00521,38.858557 C369.00521,36.1263444 370.788094,33.9014225 372.979337,33.9014225 L376.59773,33.9014225 C378.788973,33.9014225 380.569752,36.1263444 380.569752,38.858557 L380.569752,54.3509179 C380.569752,54.8287393 380.186653,55.2160484 379.710937,55.2160484" id="Fill-13" fill="#000000"></path>
                <path d="M369.864447,56.411444 C369.38873,56.411444 369.005631,56.0262399 369.005631,55.5505234 L369.005631,42.9166715 C369.005631,42.4409549 369.38873,42.0557509 369.864447,42.0557509 C370.340163,42.0557509 370.725367,42.4409549 370.725367,42.9166715 L370.725367,55.5505234 C370.725367,56.0262399 370.340163,56.411444 369.864447,56.411444" id="Fill-15" fill="#000000"></path>
                <path d="M368.098823,59.1628115 C366.650624,59.1628115 365.471857,57.9840449 365.471857,56.535846 L365.471857,46.4026632 C365.471857,45.9269466 365.859166,45.5417426 366.332778,45.5417426 C366.808494,45.5417426 367.191593,45.9269466 367.191593,46.4026632 L367.191593,56.535846 C367.191593,57.0368218 367.599952,57.4430752 368.098823,57.4430752 C368.597694,57.4430752 369.006052,57.0368218 369.006052,56.535846 L369.006052,46.4026632 C369.006052,45.9269466 369.389151,45.5417426 369.864868,45.5417426 C370.338479,45.5417426 370.725788,45.9269466 370.725788,46.4026632 L370.725788,56.535846 C370.725788,57.9840449 369.544917,59.1628115 368.098823,59.1628115" id="Fill-17" fill="#000000"></path>
                <path d="M339.379859,59.1876498 C337.93166,59.1876498 336.752893,58.0088832 336.752893,56.5606843 L336.752893,46.4275015 C336.752893,45.9517849 337.138097,45.5665809 337.611709,45.5665809 C338.08953,45.5665809 338.472629,45.9517849 338.472629,46.4275015 L338.472629,56.5606843 C338.472629,57.0616601 338.880988,57.4679135 339.379859,57.4679135 C339.87873,57.4679135 340.287088,57.0616601 340.287088,56.5606843 L340.287088,48.7408309 C340.287088,48.2651144 340.670187,47.8799103 341.145904,47.8799103 C341.619515,47.8799103 342.004719,48.2651144 342.004719,48.7408309 L342.004719,56.5606843 C342.004719,58.0088832 340.825953,59.1876498 339.379859,59.1876498" id="Fill-19" fill="#000000"></path>
                <path d="M381.598016,59.1752307 C380.082459,59.1752307 378.848964,57.9964641 378.848964,56.5482651 L378.848964,46.4150823 C378.848964,45.9393658 379.236273,45.5562667 379.711989,45.5562667 C380.185601,45.5562667 380.570805,45.9393658 380.570805,46.4150823 L380.570805,56.5482651 C380.570805,57.0492409 381.029682,57.4554944 381.598016,57.4554944 C382.164245,57.4554944 382.623122,57.0492409 382.623122,56.5482651 L382.623122,53.0898481 C382.623122,52.6162366 383.010431,52.2310325 383.484042,52.2310325 C383.959759,52.2310325 384.344963,52.6162366 384.344963,53.0898481 L384.344963,56.5482651 C384.344963,57.9964641 383.113573,59.1752307 381.598016,59.1752307" id="Fill-21" fill="#000000"></path>
                <path d="M337.61213,43.5546789 C337.136413,43.5546789 336.753314,43.1694748 336.753314,42.6958632 L336.753314,38.0292105 C336.753314,37.5555989 337.136413,37.1703948 337.61213,37.1703948 C338.089951,37.1703948 338.47305,37.5555989 338.47305,38.0292105 L338.47305,42.6958632 C338.47305,43.1694748 338.089951,43.5546789 337.61213,43.5546789" id="Fill-23" fill="#000000"></path>
                <path d="M334.374521,89.0811705 C332.48639,89.0811705 330.947678,87.5361443 330.947678,85.6353832 L330.947678,67.8170632 C330.947678,65.6152956 332.730563,63.8218865 334.921806,63.8218865 C337.113048,63.8218865 338.893828,65.6152956 338.893828,67.8170632 L338.893828,85.6353832 C338.893828,86.1132047 338.510729,86.4984087 338.035012,86.4984087 C337.561401,86.4984087 337.174092,86.1132047 337.174092,85.6353832 L337.174092,67.8170632 C337.174092,66.5688336 336.165825,65.5500425 334.921806,65.5500425 C333.679891,65.5500425 332.667414,66.5688336 332.667414,67.8170632 L332.667414,85.6353832 C332.667414,86.5826064 333.433613,87.3509096 334.374521,87.3509096 C334.850238,87.3509096 335.233337,87.7382186 335.233337,88.2160401 C335.233337,88.6938615 334.850238,89.0811705 334.374521,89.0811705" id="Fill-25" fill="#000000"></path>
                <path d="M363.085065,89.0811705 C361.196934,89.0811705 359.658222,87.5361443 359.658222,85.6374881 L359.658222,67.8339027 C359.658222,65.6321351 361.441107,63.8408309 363.63235,63.8408309 C365.821488,63.8408309 367.602267,65.6321351 367.602267,67.8339027 L367.602267,85.6374881 C367.602267,86.1153096 367.219168,86.5005137 366.743452,86.5005137 C366.26984,86.5005137 365.884636,86.1153096 365.884636,85.6374881 L365.884636,67.8339027 C365.884636,66.5856731 364.874265,65.5689869 363.63235,65.5689869 C362.38833,65.5689869 361.375854,66.5856731 361.375854,67.8339027 L361.375854,85.6374881 C361.375854,86.5826064 362.144157,87.3530145 363.085065,87.3530145 C363.560782,87.3530145 363.943881,87.7403235 363.943881,88.2160401 C363.943881,88.6938615 363.560782,89.0811705 363.085065,89.0811705" id="Fill-27" fill="#000000"></path>
                <path d="M338.035433,86.5158797 C337.559717,86.5158797 337.174513,86.1306757 337.174513,85.6549591 L337.174513,70.2825798 C337.174513,69.8068633 337.559717,69.4216592 338.035433,69.4216592 C338.51115,69.4216592 338.894249,69.8068633 338.894249,70.2825798 L338.894249,85.6549591 C338.894249,86.1306757 338.51115,86.5158797 338.035433,86.5158797" id="Fill-29" fill="#000000"></path>
                <path d="M355.241005,70.8521767 L341.767282,70.8521767 C341.289461,70.8521767 340.902152,70.4669726 340.902152,69.993361 C340.902152,69.5176445 341.289461,69.1324404 341.767282,69.1324404 L355.241005,69.1324404 C355.718827,69.1324404 356.104031,69.5176445 356.104031,69.993361 C356.104031,70.4669726 355.718827,70.8521767 355.241005,70.8521767" id="Fill-31" fill="#000000"></path>
                <path d="M348.480147,76.627291 C348.004431,76.627291 347.621332,76.2420869 347.621332,75.7684754 L347.621332,64.6796496 C347.621332,64.2060381 348.004431,63.820834 348.480147,63.820834 C348.955864,63.820834 349.338963,64.2060381 349.338963,64.6796496 L349.338963,75.7684754 C349.338963,76.2420869 348.955864,76.627291 348.480147,76.627291" id="Fill-33" fill="#000000"></path>
                <path d="M352.457643,89.0811705 L344.351517,89.0811705 C343.877906,89.0811705 343.490597,88.6959665 343.490597,88.2223549 C343.490597,87.7466384 343.877906,87.3614343 344.351517,87.3614343 L352.457643,87.3614343 C353.518532,87.3614343 354.379453,86.5026186 354.379453,85.4459386 L354.379453,78.6996048 C354.379453,77.6450297 353.518532,76.786214 352.457643,76.786214 L344.351517,76.786214 C343.292732,76.786214 342.431812,77.6450297 342.431812,78.6996048 C342.431812,79.1753213 342.046608,79.5605254 341.570891,79.5605254 C341.095175,79.5605254 340.707866,79.1753213 340.707866,78.6996048 C340.707866,76.6957016 342.343404,75.0664778 344.351517,75.0664778 L352.457643,75.0664778 C354.467861,75.0664778 356.103399,76.6957016 356.103399,78.6996048 L356.103399,85.4459386 C356.103399,87.4519467 354.467861,89.0811705 352.457643,89.0811705" id="Fill-35" fill="#000000"></path>
                <path d="M380.122031,85.1354599 C379.646315,85.1354599 379.263216,84.7481509 379.263216,84.2682245 L379.263216,68.7779685 C379.263216,67.0287631 378.231795,65.5531999 377.008825,65.5531999 L373.390432,65.5531999 C372.169567,65.5531999 371.136041,67.0287631 371.136041,68.7779685 L371.136041,84.2682245 C371.136041,84.7481509 370.752942,85.1354599 370.277225,85.1354599 C369.803614,85.1354599 369.41841,84.7481509 369.41841,84.2682245 L369.41841,68.7779685 C369.41841,66.043651 371.201294,63.820834 373.390432,63.820834 L377.008825,63.820834 C379.202173,63.820834 380.982952,66.043651 380.982952,68.7779685 L380.982952,84.2682245 C380.982952,84.7481509 380.597748,85.1354599 380.122031,85.1354599" id="Fill-37" fill="#000000"></path>
                <path d="M370.277646,86.329803 C369.80193,86.329803 369.418831,85.9445989 369.418831,85.4709874 L369.418831,72.8350305 C369.418831,72.359314 369.80193,71.9762148 370.277646,71.9762148 C370.753363,71.9762148 371.136462,72.359314 371.136462,72.8350305 L371.136462,85.4709874 C371.136462,85.9445989 370.753363,86.329803 370.277646,86.329803" id="Fill-39" fill="#000000"></path>
                <path d="M368.512022,89.0811705 C367.063824,89.0811705 365.885057,87.902404 365.885057,86.454205 L365.885057,76.3210222 C365.885057,75.8453057 366.270261,75.4622065 366.743873,75.4622065 C367.219589,75.4622065 367.602688,75.8453057 367.602688,76.3210222 L367.602688,86.454205 C367.602688,86.9551808 368.011047,87.3614343 368.512022,87.3614343 C369.010893,87.3614343 369.419252,86.9551808 369.419252,86.454205 L369.419252,76.3210222 C369.419252,75.8453057 369.802351,75.4622065 370.278067,75.4622065 C370.751679,75.4622065 371.136883,75.8453057 371.136883,76.3210222 L371.136883,86.454205 C371.136883,87.902404 369.958117,89.0811705 368.512022,89.0811705" id="Fill-41" fill="#000000"></path>
                <path d="M339.801268,89.1068508 C338.353069,89.1068508 337.174302,87.9280842 337.174302,86.4798853 L337.174302,76.3467025 C337.174302,75.870986 337.561611,75.4857819 338.035223,75.4857819 C338.510939,75.4857819 338.894038,75.870986 338.894038,76.3467025 L338.894038,86.4798853 C338.894038,86.9808611 339.302397,87.3871146 339.801268,87.3871146 C340.300139,87.3871146 340.708497,86.9808611 340.708497,86.4798853 L340.708497,78.6600319 C340.708497,78.1843154 341.091596,77.7991113 341.567313,77.7991113 C342.040924,77.7991113 342.428233,78.1843154 342.428233,78.6600319 L342.428233,86.4798853 C342.428233,87.9280842 341.247362,89.1068508 339.801268,89.1068508" id="Fill-43" fill="#000000"></path>
                <g id="Group-47" transform="translate(378.946026, 75.175538)">
                    <mask id="mask-2" fill="white">
                        <use xlink:href="#path-1"></use>
                    </mask>
                    <g id="Clip-46"></g>
                    <path d="M3.06308467,13.919104 C1.54963256,13.919104 0.316137522,12.7403374 0.316137522,11.2921384 L0.316137522,1.15895563 C0.316137522,0.683239117 0.701341604,0.298035035 1.17705812,0.298035035 C1.6506697,0.298035035 2.03797872,0.683239117 2.03797872,1.15895563 L2.03797872,11.2921384 C2.03797872,11.7931142 2.49685571,12.1993677 3.06308467,12.1993677 C3.63141856,12.1993677 4.09029555,11.7931142 4.09029555,11.2921384 L4.09029555,7.83372145 C4.09029555,7.36010988 4.47549963,6.9749058 4.94911121,6.9749058 C5.42482773,6.9749058 5.81213675,7.36010988 5.81213675,7.83372145 L5.81213675,11.2921384 C5.81213675,12.7403374 4.57864171,13.919104 3.06308467,13.919104" id="Fill-45" fill="#000000" mask="url(#mask-2)"></path>
                </g>
                <g id="Group-50" transform="translate(9.000000, 33.600206)">
                    <mask id="mask-4" fill="white">
                        <use xlink:href="#path-3"></use>
                    </mask>
                    <g id="Clip-49"></g>
                    <path d="M27.4709449,10.9760009 C18.1271147,10.9760009 10.5240702,18.5769405 10.5240702,27.9228756 C10.5240702,37.2667058 18.1271147,44.8697503 27.4709449,44.8697503 C36.8147751,44.8697503 44.4178196,37.2667058 44.4178196,27.9228756 C44.4178196,18.5769405 36.8147751,10.9760009 27.4709449,10.9760009 M27.4709449,55.394452 C12.3237942,55.394452 -0.000631482102,43.0700263 -0.000631482102,27.9228756 C-0.000631482102,12.77362 12.3237942,0.451299209 27.4709449,0.451299209 C42.6180956,0.451299209 54.9425213,12.77362 54.9425213,27.9228756 C54.9425213,43.0700263 42.6180956,55.394452 27.4709449,55.394452" id="Fill-48" fill="#000000" mask="url(#mask-4)"></path>
                </g>
                <path d="M36.4709449,145.161202 C33.5640223,145.161202 31.2085941,142.805773 31.2085941,139.898851 C31.2085941,136.991928 33.5640223,134.6365 36.4709449,134.6365 C45.8147751,134.6365 53.4178196,127.03556 53.4178196,117.689625 C53.4178196,108.345795 45.8147751,100.742751 36.4709449,100.742751 C33.5640223,100.742751 31.2085941,98.3873223 31.2085941,95.4803997 C31.2085941,92.575582 33.5640223,90.2180488 36.4709449,90.2180488 C51.6180956,90.2180488 63.9425213,102.542475 63.9425213,117.689625 C63.9425213,132.838881 51.6180956,145.161202 36.4709449,145.161202" id="Fill-51" fill="#000000"></path>
                <path d="M97.1298527,88.9938155 C83.9655558,88.9938155 73.2556193,78.5070027 73.2556193,65.618453 L73.2556193,39.0477911 C73.2556193,36.2019118 75.6110476,33.8948972 78.5179702,33.8948972 C81.4248928,33.8948972 83.780321,36.2019118 83.780321,39.0477911 L83.780321,65.618453 C83.780321,72.8257688 89.7688763,78.6880276 97.1298527,78.6880276 C104.490829,78.6880276 110.479384,72.8257688 110.479384,65.618453 L110.479384,39.0477911 C110.479384,36.2019118 112.834813,33.8948972 115.741735,33.8948972 C118.648658,33.8948972 121.004086,36.2019118 121.004086,39.0477911 L121.004086,65.618453 C121.004086,78.5070027 110.29415,88.9938155 97.1298527,88.9938155" id="Fill-53" fill="#000000"></path>
                <path d="M155.41544,89.1068508 C152.508518,89.1068508 150.153089,86.8040461 150.153089,83.9623766 L150.153089,39.0408448 C150.153089,36.1991754 152.508518,33.8963706 155.41544,33.8963706 C158.322363,33.8963706 160.677791,36.1991754 160.677791,39.0408448 L160.677791,83.9623766 C160.677791,86.8040461 158.322363,89.1068508 155.41544,89.1068508" id="Fill-55" fill="#000000"></path>
                <g id="Group-59" transform="translate(46.888926, 20.447089)">
                    <mask id="mask-6" fill="white">
                        <use xlink:href="#path-5"></use>
                    </mask>
                    <g id="Clip-58"></g>
                    <path d="M5.96119104,31.1964543 L5.86015391,31.1964543 C2.9532313,31.1417258 0.644111744,28.7399889 0.696735253,25.8351712 C0.871445301,16.6492116 4.60771441,8.03158585 11.2256468,1.57362888 C13.301118,-0.455533607 16.6353435,-0.417644681 18.6666109,1.66414132 C20.6957734,3.74171743 20.6557796,7.07383799 18.5760985,9.10510542 C13.9536495,13.6180975 11.3414186,19.6298071 11.221437,26.0330356 C11.1667085,28.9041743 8.81970003,31.1964543 5.96119104,31.1964543" id="Fill-57" fill="#000000" mask="url(#mask-6)"></path>
                </g>
                <path d="M131.345447,89.064752 C130.465582,89.064752 129.575193,88.8479432 128.758476,88.395381 C126.226233,86.9892808 125.337948,83.8360802 126.769307,81.3543555 L127.000851,80.9586268 C127.644962,79.8514281 128.377482,78.5947788 129.021593,76.6898077 L129.091056,76.4814187 C129.516254,75.2226643 129.918298,74.033373 130.02144,72.6420075 C130.486632,66.377705 130.299292,49.7086825 130.297187,49.5423922 L130.337181,38.9713818 C130.345601,36.1255024 132.701029,33.8248027 135.599532,33.8248027 L135.616371,33.8248027 C138.523294,33.8353274 140.870302,36.1570765 140.861883,39.0071658 L140.821889,49.5002934 C140.830309,50.1254606 141.015543,66.6997609 140.516672,73.3913662 C140.320913,76.0688503 139.603128,78.1885253 139.078998,79.7356564 L139.01164,79.9356258 C138.037053,82.8236039 136.89407,84.7896182 136.134187,86.0883664 L135.930007,86.4441013 C134.961735,88.1217387 133.17885,89.064752 131.345447,89.064752" id="Fill-60" fill="#000000"></path>
                <path d="M197.236816,44.5772589 C187.892986,44.5772589 180.289941,52.1781985 180.289941,61.5241336 C180.289941,70.8679638 187.892986,78.4710083 197.236816,78.4710083 C206.580646,78.4710083 214.183691,70.8679638 214.183691,61.5241336 C214.183691,52.1781985 206.580646,44.5772589 197.236816,44.5772589 M197.236816,88.99571 C182.089665,88.99571 169.765239,76.6712843 169.765239,61.5241336 C169.765239,46.3748779 182.089665,34.0525572 197.236816,34.0525572 C212.383967,34.0525572 224.708392,46.3748779 224.708392,61.5241336 C224.708392,76.6712843 212.383967,88.99571 197.236816,88.99571" id="Fill-62" fill="#000000"></path>
                <g id="Group-66" transform="translate(191.606335, 89.910121)" fill="#000000">
                    <path d="M5.6304804,55.2521335 C2.72355779,55.2521335 0.368129548,52.8967053 0.368129548,49.9897826 C0.368129548,47.08286 2.72355779,44.7274318 5.6304804,44.7274318 C14.9743106,44.7274318 22.5773551,37.1264922 22.5773551,27.7805571 C22.5773551,18.4367269 14.9743106,10.8336824 5.6304804,10.8336824 C2.72355779,10.8336824 0.368129548,8.47825419 0.368129548,5.57133158 C0.368129548,2.66651391 2.72355779,0.308980725 5.6304804,0.308980725 C20.7776311,0.308980725 33.1020568,12.6334064 33.1020568,27.7805571 C33.1020568,42.9298127 20.7776311,55.2521335 5.6304804,55.2521335" id="Fill-64"></path>
                </g>
                <path d="M257.895724,88.994868 C244.731427,88.994868 234.02149,78.5101602 234.02149,65.6195055 L234.02149,39.0488436 C234.02149,36.2029642 236.376919,33.8959496 239.283841,33.8959496 C242.190764,33.8959496 244.546192,36.2029642 244.546192,39.0488436 L244.546192,65.6195055 C244.546192,72.8268212 250.534747,78.6890801 257.895724,78.6890801 C265.2567,78.6890801 271.245255,72.8268212 271.245255,65.6195055 L271.245255,39.0488436 C271.245255,36.2029642 273.600684,33.8959496 276.507606,33.8959496 C279.414529,33.8959496 281.769957,36.2029642 281.769957,39.0488436 L281.769957,65.6195055 C281.769957,78.5101602 271.060021,88.994868 257.895724,88.994868" id="Fill-67" fill="#000000"></path>
                <path d="M316.180259,89.1079033 C313.273336,89.1079033 310.917908,86.8050986 310.917908,83.9634291 L310.917908,39.0418973 C310.917908,36.2002278 313.273336,33.8974231 316.180259,33.8974231 C319.087181,33.8974231 321.44261,36.2002278 321.44261,39.0418973 L321.44261,83.9634291 C321.44261,86.8050986 319.087181,89.1079033 316.180259,89.1079033" id="Fill-69" fill="#000000"></path>
                <path d="M213.615778,51.6445961 L213.514741,51.6445961 C210.607818,51.5898676 208.298698,49.1881307 208.351322,46.283313 C208.526032,37.0973534 212.262301,28.4797276 218.880233,22.0217707 C220.955705,19.9926082 224.28993,20.0304971 226.321198,22.1122831 C228.35036,24.1898592 228.310366,27.5219798 226.230685,29.5532472 C221.608236,34.0662393 218.996005,40.0779489 218.876024,46.4811774 C218.821295,49.3523161 216.474287,51.6445961 213.615778,51.6445961" id="Fill-71" fill="#000000"></path>
                <path d="M292.111318,89.0658045 C291.231453,89.0658045 290.341064,88.8489956 289.524347,88.3964334 C286.992103,86.9903333 286.103819,83.8371327 287.535178,81.355408 L287.766722,80.9596792 C288.410833,79.8524806 289.143353,78.5958312 289.787464,76.6908602 L289.856927,76.4824711 C290.282125,75.2237168 290.684169,74.0344255 290.787311,72.6430599 C291.252503,66.3787575 291.065163,49.7097349 291.063058,49.5434446 L291.103052,38.9724343 C291.111472,36.1265549 293.4669,33.8258551 296.365403,33.8258551 L296.382242,33.8258551 C299.289165,33.8363798 301.636173,36.158129 301.627754,39.0103232 L301.58776,49.5034508 C301.59618,50.1265131 301.781414,66.7008134 301.282543,73.3945236 C301.086784,76.0699028 300.368999,78.1895777 299.844869,79.7367089 L299.777511,79.9366782 C298.802924,82.8246564 297.659941,84.7906706 296.900058,86.0894188 L296.695878,86.4451538 C295.727606,88.1227912 293.944721,89.0658045 292.111318,89.0658045" id="Fill-73" fill="#000000"></path>
            </g>
        </g>
    </g>
</svg>