<?xml version="1.0" encoding="UTF-8" standalone="no"?>
<svg width="393px" height="164px" viewBox="0 0 393 164" version="1.1" xmlns="http://www.w3.org/2000/svg" xmlns:xlink="http://www.w3.org/1999/xlink">
    <!-- Generator: Sketch 45.2 (43514) - http://www.bohemiancoding.com/sketch -->
    <title>hellolento</title>
    <desc>Created with Sketch.</desc>
    <defs>
        <polygon id="path-1" points="0.0512625616 61.2133182 66.3197806 61.2133182 66.3197806 0.55449064 0.0512625616 0.55449064 0.0512625616 61.2133182"></polygon>
        <polygon id="path-3" points="0 75.7923663 375.028495 75.7923663 375.028495 0.0612894959 0 0.0612894959"></polygon>
    </defs>
    <g id="Welcome" stroke="none" stroke-width="1" fill="none" fill-rule="evenodd">
        <g id="About-us" transform="translate(-84.000000, -6374.000000)">
            <g id="hellolento" transform="translate(84.000000, 6374.000000)">
                <rect id="Rectangle-2" fill="#D8D8D8" x="0" y="0" width="392.093587" height="164"></rect>
                <g id="Page-1" transform="translate(8.000000, 44.000000)">
                    <g id="Group-3" transform="translate(187.893274, 14.579048)" fill="#050101">
                        <path d="M8.67952403,46.1604531 C9.35797164,47.7366961 10.2914747,49.0884902 11.4851344,50.2311388 C12.673693,51.3686863 14.0458916,52.2817849 15.5915279,52.9602325 C17.1371642,53.6386801 18.800126,53.9753534 20.5906155,53.9753534 L20.5906155,61.2138283 C17.825814,61.2138283 15.224248,60.688414 12.7859175,59.6324842 C10.347587,58.5714534 8.20512082,57.1329404 6.36362016,55.3169453 C4.5170184,53.5009502 3.0683032,51.3635852 2.01237347,48.894648 C0.956443727,46.4308119 0.425928303,43.8139426 0.425928303,41.049141 L0.425928303,0.474913327 L7.66440317,0.474913327 L7.66440317,41.1103544 C7.66440317,42.9008439 8.00107642,44.5842102 8.67952403,46.1604531" id="Fill-1"></path>
                    </g>
                    <g id="Group-6" transform="translate(245.916603, 14.579048)">
                        <mask id="mask-2" fill="white">
                            <use xlink:href="#path-1"></use>
                        </mask>
                        <g id="Clip-5"></g>
                        <path d="M53.3884671,40.7257307 C53.3884671,42.5162202 53.7251404,44.1944854 54.403588,45.7656272 C55.0820356,47.336769 56.0053365,48.7191698 57.1683895,49.9128295 C58.3365437,51.1064892 59.7036411,52.0399923 61.2747829,52.7184399 C62.8459248,53.3917864 64.529291,53.7335608 66.3197806,53.7335608 L66.3197806,60.9720357 C63.554979,60.9720357 60.9483119,60.4415202 58.5099814,59.3804894 C56.0716509,58.3245597 53.9444881,56.9064511 52.128493,55.1159616 C50.3124979,53.3305731 48.8637827,51.2136125 47.7772463,48.775282 C46.695811,46.3369515 46.1550934,43.7353855 46.1550934,40.970584 L46.1550934,20.8058967 C46.1550934,19.0154072 45.813319,17.3320409 45.1348714,15.7608991 C44.4615249,14.1897573 43.538224,12.8073565 42.3700698,11.6136968 C41.2070168,10.4251382 39.8399194,9.48653398 38.2687775,8.80808637 C36.6925346,8.12963876 35.0142694,7.79296551 33.2237799,7.79296551 C31.4383914,7.79296551 29.7550252,8.12963876 28.1838834,8.80808637 C26.6076404,9.48653398 25.240543,10.4251382 24.0774899,11.6136968 C22.9093358,12.8073565 21.991136,14.1897573 21.3126884,15.7608991 C20.6342408,17.3320409 20.2975675,19.0154072 20.2975675,20.8058967 L20.2975675,61.2168889 L13.0590927,61.2168889 L13.0590927,20.8058967 C13.0590927,19.0154072 12.7224194,17.3320409 12.0439718,15.7608991 C11.3655242,14.1897573 10.4320211,12.8073565 9.23836139,11.6136968 C8.04470169,10.4251382 6.66230092,9.48653398 5.09115909,8.80808637 C3.52001726,8.12963876 1.84175212,7.79296551 0.0512625616,7.79296551 L0.0512625616,0.55449064 C3.52001726,0.55449064 6.68780647,1.34006156 9.56483243,2.9163045 C12.4367573,4.48744633 14.79347,6.60440692 16.6349707,9.25698404 C18.4815724,6.60440692 20.8535885,4.48744633 23.7510189,2.9163045 C26.6535504,1.34006156 29.8111374,0.55449064 33.2237799,0.55449064 C35.9885814,0.55449064 38.6054508,1.08500606 41.0692868,2.14603691 C43.538224,3.20196665 45.6908924,4.65068185 47.5374941,6.4921825 C49.3789948,8.33368316 50.82771,10.4761493 51.8887408,12.9195809 C52.9446706,15.3528103 53.4700849,17.984983 53.4700849,20.8058967 L53.3884671,40.7257307 Z" id="Fill-4" fill="#050101" mask="url(#mask-2)"></path>
                    </g>
                    <path d="M266.052975,9.36469363 C265.961155,3.855495 268.307666,0.152089251 272.194711,0.152089251 C274.179043,0.152089251 275.622657,0.968266827 277.52027,1.96298325 C278.963884,2.77405971 280.407498,3.58513618 281.856213,3.58513618 C283.208007,3.58513618 284.019084,2.95259856 284.294544,0.0653703837 L288.446847,0.0653703837 C288.533566,5.75310786 286.549234,8.82397599 282.396931,8.82397599 C280.499318,8.82397599 278.877165,8.09961839 276.887732,7.11000308 C275.173759,6.20200553 274.000504,5.39092906 272.643609,5.39092906 C271.199995,5.39092906 270.567457,6.92126202 270.297098,9.36469363 L266.052975,9.36469363 Z" id="Fill-7" fill="#050101"></path>
                    <path d="M315.390399,28.045468 C314.533413,30.2134397 314.10492,32.5140402 314.10492,34.9523707 L314.10492,75.7918562 L321.343395,75.7918562 L321.343395,75.7714517 L321.343395,35.289044 C321.343395,33.4985544 321.680068,31.804986 322.363617,30.2083386 C323.042064,28.6065901 323.985769,27.2292904 325.18453,26.0611363 C326.388392,24.8980832 327.775894,23.959479 329.357238,23.260627 C330.938582,22.5515727 332.632151,22.1995961 334.432842,22.1995961 L334.432842,14.9713235 L302.994702,14.9713235 L302.994702,22.1995961 L318.767334,22.1995961 C317.374731,23.9288724 316.247386,25.8825974 315.390399,28.045468" id="Fill-9" fill="#050101"></path>
                    <path d="M341.854957,55.3144709 C341.854957,57.1100616 342.196732,58.7985289 342.875179,60.3696708 C343.558728,61.9510148 344.48713,63.3181123 345.660385,64.4913675 C346.83364,65.6544206 348.21094,66.5828226 349.792284,67.2663713 C351.373628,67.9448189 353.067197,68.2814921 354.862787,68.2814921 C356.653277,68.2814921 358.331542,67.9448189 359.907785,67.2663713 C361.478927,66.5879237 362.846024,65.6646228 364.009077,64.5015697 C365.177231,63.3334156 366.095431,61.9714193 366.773879,60.3951763 C367.457428,58.8240345 367.789,57.1406682 367.789,55.3552798 L367.789,35.1089748 C367.789,33.3184853 367.452326,31.6504223 366.773879,30.1098872 C366.09033,28.5642509 365.167029,27.1920523 363.998875,26.0034937 C362.830721,24.809834 361.458522,23.8763309 359.882279,23.1978833 C358.306036,22.5194357 356.617569,22.1827625 354.821978,22.1827625 C353.026388,22.1827625 351.343022,22.5143346 349.766779,23.1927822 C348.190536,23.8712298 346.818337,24.8047329 345.650183,25.9932915 C344.482029,27.176749 343.553627,28.5438464 342.875179,30.0843816 C342.196732,31.6198157 341.854957,33.2878786 341.854957,35.0681659 L341.936575,39.7713892 L341.854957,55.3144709 Z M375.027475,55.3552798 C375.027475,58.1200813 374.496959,60.7318496 373.441029,63.2007867 C372.3851,65.6646228 370.951688,67.8070889 369.135693,69.6281851 C367.319698,71.4390791 365.177231,72.8775921 362.708294,73.9335218 C360.244458,74.9894516 357.627589,75.519967 354.862787,75.519967 C352.097986,75.519967 349.486218,74.9894516 347.01728,73.9335218 C344.553444,72.8775921 342.395675,71.4390791 340.554174,69.6281851 C338.712674,67.8070889 337.258857,65.6646228 336.202928,63.2007867 C335.146998,60.7318496 334.621583,58.1200813 334.621583,55.3552798 L334.621583,35.1089748 C334.621583,32.3441733 335.146998,29.7273039 336.202928,27.2634679 C337.258857,24.7996318 338.712674,22.6571657 340.554174,20.8360695 C342.395675,19.0251755 344.553444,17.5866625 347.01728,16.5256316 C349.486218,15.4697019 352.097986,14.9442876 354.862787,14.9442876 C357.627589,14.9442876 360.244458,15.4697019 362.708294,16.5256316 C365.177231,17.5866625 367.319698,19.0251755 369.135693,20.8360695 C370.951688,22.6571657 372.3851,24.7996318 373.441029,27.2634679 C374.496959,29.7273039 375.027475,32.3441733 375.027475,35.1089748 L375.027475,55.3552798 Z" id="Fill-11" fill="#050101"></path>
                    <path d="M243.529025,55.5236164 C243.529025,57.3090049 243.18725,58.9719667 242.508803,60.5125018 C241.830355,62.0479359 240.891751,63.4150333 239.69299,64.6035919 C238.49933,65.7972516 237.122031,66.7256536 235.571293,67.3990001 C234.025657,68.0774477 232.352493,68.414121 230.556902,68.414121 L219.38037,68.414121 L219.38037,55.5236164 C219.38037,55.0441121 219.405876,54.5799111 219.456887,54.1208112 L219.456887,39.7356814 L219.38037,35.3130192 C219.38037,33.5225296 219.717044,31.8340623 220.395491,30.2629205 C221.073939,28.6866775 221.992139,27.3195801 223.160293,26.1463248 C224.323346,24.9832718 225.690443,24.0599709 227.266686,23.3764222 C228.837828,22.6979746 230.521194,22.3613013 232.306583,22.3613013 L242.309859,22.3613013 L242.309859,15.1432309 L232.306583,15.1432309 C229.541781,15.1432309 226.924912,15.6737463 224.461076,16.729676 C221.992139,17.7805047 219.844571,19.2292199 218.018374,21.0656194 C216.192177,22.8969178 214.753664,25.0495862 213.707936,27.5083211 C212.66731,29.9670561 212.141896,32.5788243 212.141896,35.3334236 L212.141896,75.6270903 L219.38037,75.6270903 L230.873171,75.6270903 C233.648175,75.5760792 236.239539,75.0200582 238.657465,73.9641285 C241.080492,72.9132999 243.182149,71.4696858 244.97774,69.6332862 C246.768229,67.7917856 248.181237,65.6697239 249.216762,63.2671012 C250.247186,60.8593773 250.762398,58.2782157 250.762398,55.5236164 L243.529025,55.5236164 Z" id="Fill-13" fill="#050101"></path>
                    <mask id="mask-4" fill="white">
                        <use xlink:href="#path-3"></use>
                    </mask>
                    <g id="Clip-16"></g>
                    <polygon id="Fill-15" fill="#050101" mask="url(#mask-4)" points="219.459948 49.868526 236.06406 49.868526 236.06406 44.2266985 219.459948 44.2266985"></polygon>
                    <path d="M7.18440311,75.2006375 L0.00204044394,75.2006375 L0.00204044394,14.9871369 L7.18440311,14.9871369 L7.18440311,40.3294506 C8.90347713,38.8807354 10.8572022,37.7329857 13.0353761,36.9015048 C15.21355,36.0700239 17.5396561,35.6517329 20.0187955,35.6517329 C21.7939817,35.6517329 23.4569435,35.3150596 25.0229842,34.6417131 C26.5788227,33.9683666 27.9408191,33.0399647 29.0936699,31.8565072 C30.2516218,30.6730497 31.1698216,29.3161545 31.838067,27.7807204 C32.5114135,26.2452863 32.8480867,24.5925267 32.8480867,22.8173405 L32.9297045,22.8173405 L32.9297045,14.9871369 L40.1171683,14.9871369 L40.1171683,75.2006375 L32.9297045,75.2006375 L32.9297045,38.1512767 C31.2055294,39.605093 29.2467032,40.7477416 27.0379226,41.5843236 C24.8291421,42.4158046 22.4877326,42.8340956 20.0187955,42.8340956 C18.2385081,42.8340956 16.5704452,43.1707688 15.0146067,43.8441153 C13.4536671,44.5123607 12.0916708,45.4458638 10.93882,46.6242202 C9.78086802,47.8127788 8.86776936,49.169674 8.19442286,50.7051081 C7.51597525,52.235441 7.18440311,53.8882006 7.18440311,55.6684879 L7.18440311,75.2006375 Z" id="Fill-17" fill="#050101" mask="url(#mask-4)"></path>
                    <path d="M93.4222358,60.4155808 C94.0955823,61.9816215 95.0188832,63.3232134 96.2074418,64.4607609 C97.3857982,65.5932072 98.7477945,66.4910026 100.283229,67.1643491 C101.818663,67.8427967 103.471422,68.1743688 105.246608,68.1743688 L105.246608,75.3618326 C102.502211,75.3618326 99.9159487,74.8364183 97.4980226,73.7855897 C95.0749954,72.7398621 92.9478326,71.3115514 91.1216353,69.5108596 C89.2903369,67.7101678 87.8518239,65.583005 86.8060964,63.1293712 C85.7552677,60.6859396 85.2298534,58.0894747 85.2298534,55.3450776 L85.2298534,15.0667142 L92.4122161,15.0667142 L92.4122161,55.4062909 C92.4122161,57.1814771 92.7488893,58.8546411 93.4222358,60.4155808" id="Fill-18" fill="#050101" mask="url(#mask-4)"></path>
                    <path d="M112.548847,60.4155808 C113.222194,61.9816215 114.150596,63.3232134 115.334053,64.4607609 C116.517511,65.5932072 117.874406,66.4910026 119.40984,67.1643491 C120.945274,67.8427967 122.598034,68.1743688 124.37322,68.1743688 L124.37322,75.3618326 C121.628823,75.3618326 119.047661,74.8364183 116.624634,73.7855897 C114.206708,72.7398621 112.079545,71.3115514 110.248247,69.5108596 C108.416948,67.7101678 106.983536,65.583005 105.932708,63.1293712 C104.881879,60.6859396 104.361566,58.0894747 104.361566,55.3450776 L104.361566,15.0667142 L111.538827,15.0667142 L111.538827,55.4062909 C111.538827,57.1814771 111.875501,58.8546411 112.548847,60.4155808" id="Fill-19" fill="#050101" mask="url(#mask-4)"></path>
                    <path d="M76.52736,55.5236164 C76.52736,57.3090049 76.1855857,58.9719667 75.5071381,60.5125018 C74.8286904,62.0479359 73.8900862,63.4150333 72.6964265,64.6035919 C71.4976657,65.7972516 70.1254672,66.7256536 68.5747298,67.3990001 C67.0239924,68.0774477 65.3508284,68.414121 63.5603388,68.414121 L52.378706,68.414121 L52.378706,55.5236164 C52.378706,55.0441121 52.4042116,54.5799111 52.4552227,54.1208112 L52.4552227,39.7356814 L52.378706,35.3130192 C52.378706,33.5225296 52.7204804,31.8340623 53.3938269,30.2629205 C54.0722745,28.6866775 54.9955754,27.3195801 56.1586284,26.1463248 C57.3267826,24.9832718 58.69388,24.0599709 60.2650218,23.3764222 C61.8361637,22.6979746 63.5195299,22.3613013 65.3049184,22.3613013 L75.3081948,22.3613013 L75.3081948,15.1432309 L65.3049184,15.1432309 C62.5401168,15.1432309 59.9283486,15.6737463 57.4594114,16.729676 C54.9955754,17.7805047 52.8480081,19.2292199 51.0218108,21.0656194 C49.1905124,22.8969178 47.7519994,25.0495862 46.711373,27.5083211 C45.6656455,29.9670561 45.1453323,32.5788243 45.1453323,35.3334236 L45.1453323,75.6270903 L52.378706,75.6270903 L63.8766076,75.6270903 C66.6465103,75.5760792 69.2378741,75.0200582 71.6558001,73.9641285 C74.0788273,72.9132999 76.1855857,71.4696858 77.9760752,69.6332862 C79.7716659,67.7917856 81.1846733,65.6697239 82.2150975,63.2671012 C83.2455217,60.8593773 83.7658349,58.2782157 83.7658349,55.5236164 L76.52736,55.5236164 Z" id="Fill-20" fill="#050101" mask="url(#mask-4)"></path>
                    <polygon id="Fill-21" fill="#050101" mask="url(#mask-4)" points="52.4598137 49.868526 69.0639262 49.868526 69.0639262 44.2266985 52.4598137 44.2266985"></polygon>
                    <path d="M131.289815,55.5486118 C131.289815,57.3442025 131.631589,59.0275688 132.315138,60.6038117 C132.993585,62.1800546 133.921987,63.5522532 135.095243,64.7204074 C136.268498,65.8885615 137.645798,66.8169635 139.227142,67.4954111 C140.808486,68.1789598 142.502054,68.5156331 144.297645,68.5156331 C146.088134,68.5156331 147.766399,68.1789598 149.342642,67.5005122 C150.913784,66.8220646 152.280882,65.8987637 153.443935,64.7357107 C154.612089,63.5675565 155.530289,62.2004591 156.208736,60.6293173 C156.892285,59.0530743 157.228958,57.3748092 157.228958,55.5894207 L157.228958,35.3380146 C157.228958,33.5526262 156.887184,31.8845633 156.208736,30.3440281 C155.525188,28.7983918 154.601887,27.4261933 153.433733,26.2325336 C152.265578,25.043975 150.89338,24.1053708 149.317137,23.4269231 C147.740894,22.7484755 146.052427,22.4118023 144.256836,22.4118023 C142.461245,22.4118023 140.777879,22.7484755 139.201636,23.4269231 C137.625393,24.1002696 136.253195,25.0337727 135.08504,26.2223313 C133.916886,27.4108899 132.988484,28.7779874 132.310037,30.3185225 C131.631589,31.8539566 131.289815,33.5220195 131.289815,35.3023069 L131.371432,40.0055301 L131.289815,55.5486118 Z M164.462332,55.5894207 C164.462332,58.3542223 163.936918,60.9659905 162.875887,63.4349277 C161.819957,65.8987637 160.386545,68.0361288 158.57055,69.857225 C156.754555,71.6732201 154.612089,73.1066319 152.143152,74.1625617 C149.679316,75.2184914 147.062446,75.754108 144.297645,75.754108 C141.532843,75.754108 138.921075,75.2184914 136.452138,74.1625617 C133.988302,73.1066319 131.830532,71.6732201 129.989032,69.857225 C128.147531,68.0361288 126.698816,65.8987637 125.637785,63.4349277 C124.581855,60.9659905 124.056441,58.3542223 124.056441,55.5894207 L124.056441,35.3380146 C124.056441,32.5783142 124.581855,29.9614449 125.637785,27.4976088 C126.698816,25.0286716 128.147531,22.8862055 129.989032,21.0702104 C131.830532,19.2542153 133.988302,17.8208034 136.452138,16.7597726 C138.921075,15.7038428 141.532843,15.1784285 144.297645,15.1784285 C147.062446,15.1784285 149.679316,15.7038428 152.143152,16.7597726 C154.612089,17.8208034 156.754555,19.2542153 158.57055,21.0702104 C160.386545,22.8862055 161.819957,25.0286716 162.875887,27.4976088 C163.936918,29.9614449 164.462332,32.5783142 164.462332,35.3380146 L164.462332,55.5894207 Z" id="Fill-22" fill="#050101" mask="url(#mask-4)"></path>
                </g>
            </g>
        </g>
    </g>
</svg>