<?xml version="1.0" encoding="UTF-8" standalone="no"?>
<svg width="553px" height="342px" viewBox="0 0 553 342" version="1.1" xmlns="http://www.w3.org/2000/svg" xmlns:xlink="http://www.w3.org/1999/xlink">
    <!-- Generator: Sketch 45.2 (43514) - http://www.bohemiancoding.com/sketch -->
    <title>Group</title>
    <desc>Created with Sketch.</desc>
    <defs></defs>
    <g id="Welcome" stroke="none" stroke-width="1" fill="none" fill-rule="evenodd">
        <g id="About-us" transform="translate(-655.000000, -785.000000)">
            <g id="Group" transform="translate(655.000000, 785.000000)">
                <g id="Page-1" transform="translate(157.000000, 0.000000)" fill="#050101">
                    <polygon id="Fill-1" points="145.591 51.9909758 171.025232 91.9652539 182.277492 74.2350774 166.391948 49.2077504 176.20648 33.7508125 225.349668 111.198264 215.540562 126.655202 199.655018 101.627875 188.429885 119.330924 213.864116 159.310628 246.763685 107.46017 178.57195 0.0103082422"></polygon>
                    <polygon id="Fill-2" points="116.079046 98.4952541 110.393236 107.457999 117.495073 118.656006 178.650076 214.799353 211.457413 163.106231 186.028607 123.121102 174.879429 140.688517 190.759548 165.715844 180.945016 181.178207 131.796402 103.730756 141.605509 88.2629674 157.491052 113.29572 168.618528 95.7608572 143.184297 55.7757283"></polygon>
                    <polygon id="Fill-3" points="139.223762 0.00813808594 129.620821 15.0310447 110.892372 44.3173033 77.2820773 44.3769826 105.65687 0.00271269531 68.4224144 0.00271269531 58.7272413 15.1612541 9.31820891 92.4188166 1.00108508 105.434329 38.2355409 105.434329 65.3245163 63.0674533 98.9402366 63.0023486 80.2117882 92.2940326 71.8132835 105.434329 106.866732 105.434329 173.745523 0.00271269531"></polygon>
                    <polygon id="Fill-4" points="71.8111134 109.496319 80.2150434 122.631189 98.9380665 151.917448 65.3277716 151.852343 38.2387962 109.496319 0.998914922 109.496319 9.32146414 122.506405 58.7304966 199.758542 68.4202442 214.922509 105.660125 214.922509 77.2799071 170.548239 110.895627 170.607919 129.61865 199.888752 139.221592 214.911659 173.91154 214.922509 106.848286 109.496319"></polygon>
                </g>
                <text id="HYPERCUBE-STUDIO" font-family="BahnPro, Bahn Pro" font-size="100" font-weight="normal" line-spacing="138" fill="#000000">
                    <tspan x="0" y="343">HYPERCUBE STUDIO</tspan>
                </text>
            </g>
        </g>
    </g>
</svg>