<?xml version="1.0" encoding="UTF-8" standalone="no"?>
<svg width="393px" height="164px" viewBox="0 0 393 164" version="1.1" xmlns="http://www.w3.org/2000/svg" xmlns:xlink="http://www.w3.org/1999/xlink">
    <!-- Generator: Sketch 45.2 (43514) - http://www.bohemiancoding.com/sketch -->
    <title>muse</title>
    <desc>Created with Sketch.</desc>
    <defs>
        <polygon id="path-1" points="0.117973798 0.479299885 54.0695463 0.479299885 54.0695463 96.1991273 0.117973798 96.1991273 0.117973798 0.479299885"></polygon>
        <polygon id="path-3" points="70.6866293 106.478469 0.24774737 106.478469 0.24774737 0.219807722 70.6866293 0.219807722 70.6866293 106.478469"></polygon>
    </defs>
    <g id="Welcome" stroke="none" stroke-width="1" fill="none" fill-rule="evenodd">
        <g id="About-us" transform="translate(-537.000000, -6145.000000)">
            <g id="muse" transform="translate(537.000000, 6145.000000)">
                <rect id="Rectangle-2-Copy" fill="#D8D8D8" x="0.302137652" y="0" width="392.093587" height="164"></rect>
                <path d="M157.464257,125.151006 L163.686055,128.318025 C160.558471,134.576226 155.753338,137.928291 149.270655,138.362088 L148.17858,138.362088 C145.560632,138.362088 143.103461,137.837285 140.810102,136.781612 C138.516743,135.722905 136.787624,134.321408 135.619709,132.574087 C134.382024,130.756994 133.450726,128.481837 132.834916,125.748614 C132.219107,123.021458 131.885417,120.961682 131.852048,119.58142 C131.815646,118.198124 131.833847,116.996841 131.909686,115.97757 L131.909686,70.2195988 C128.706264,76.4080277 125.393634,80.6671229 121.968763,82.9968844 L119.999993,84.4135492 L117.928083,82.9968844 C114.579051,80.6671229 111.302824,76.4080277 108.099402,70.2195988 L108.099402,119.58142 L101.00091,119.58142 L101.00091,49.4701607 L101.00091,44.6650277 L101.00091,42.8054655 L108.099402,42.8054655 L108.099402,44.6650277 L108.099402,49.4701607 C108.099402,51.6512786 109.370457,55.7859985 111.918633,61.8652198 C114.46681,67.9444411 117.16363,72.4765552 119.999993,75.4615621 C122.845457,72.4765552 125.536211,67.9444411 128.081354,61.8652198 C130.62953,55.7859985 131.909686,51.6512786 131.909686,49.4701607 L131.909686,44.6650277 L131.909686,42.8054655 L139.008178,42.8054655 L139.008178,44.6650277 L139.008178,49.4701607 L138.895936,116.4144 C138.823131,118.088916 138.947507,120.145659 139.281196,122.581595 C139.605786,125.023597 140.318668,127.043937 141.407711,128.642615 C141.917346,129.373699 142.866845,130.02591 144.247107,130.611384 C145.633437,131.190791 147.12594,131.445609 148.724618,131.375837 C152.583285,131.081584 155.49852,129.00664 157.464257,125.151006" id="Fill-1" fill="#000000"></path>
                <g id="Group-5" transform="translate(147.185429, 22.508329)">
                    <mask id="mask-2" fill="white">
                        <use xlink:href="#path-1"></use>
                    </mask>
                    <g id="Clip-4"></g>
                    <path d="M39.5419061,0.533296961 C42.6694896,0.751712099 45.4967522,1.75278148 48.0085263,3.5365051 C50.5203004,5.32022873 52.5406404,7.7409965 54.0695463,10.7988084 L47.7355074,13.9658279 C45.7697711,9.9615504 42.8909383,7.81380155 39.1020423,7.52258137 C37.5033649,7.44977632 36.0290627,7.70459398 34.6821693,8.28703435 C33.3322424,8.86947471 32.3736427,9.56415619 31.7912023,10.3619782 C30.6960931,11.9667227 29.9316401,14.0204317 29.4917763,16.5291723 C29.0610131,19.0439799 28.8759669,21.1371249 28.948772,22.811641 L28.948772,79.1627465 C28.948772,80.8402961 28.7121556,82.5663824 28.2358892,84.350106 C27.7626564,86.1368632 27.0224718,87.9539558 26.0032012,89.8104845 C24.9778634,91.6670131 23.4489575,93.1959191 21.4104162,94.3941688 C19.3749084,95.5984856 17.0087444,96.1991273 14.3149577,96.1991273 C10.5290954,96.1991273 7.39847839,94.9250389 4.92310683,92.3768623 C3.46397237,90.9207614 2.35672896,89.082434 1.59227598,86.8618801 C0.827822996,84.6443598 0.39099272,82.9850114 0.284818695,81.8929357 C0.169544039,80.80086 0.117973798,79.8543945 0.117973798,79.0535389 L0.117973798,19.4262064 L7.21646577,19.4262064 L7.21646577,79.1627465 C7.21646577,80.3276273 7.41667965,81.7473256 7.82014094,83.4218417 C8.21753515,85.0963578 8.92738435,86.4432511 9.94665499,87.4625217 C11.0387307,88.5545974 12.4948316,89.1006353 14.3149577,89.1006353 C15.3342284,89.1006353 16.2442915,88.9368239 17.045147,88.6092012 C17.8460025,88.2815785 18.5012479,87.8629495 19.0108832,87.3533142 C19.5205185,86.8436789 19.9603823,86.224836 20.321374,85.4967855 C20.6884328,84.7717686 20.979653,84.0952884 21.1980681,83.4764455 C21.4104162,82.8606361 21.5772611,82.2023572 21.6895022,81.5107092 C21.7956762,80.8190613 21.8684813,80.309426 21.9048838,79.9787697 C21.9382528,79.6541806 21.9625211,79.3447591 21.9625211,79.0535389 L21.9625211,22.9208486 C21.8866825,22.2656032 21.8684813,21.2645338 21.9048838,19.9176404 C21.9382528,18.5707471 22.2901438,16.4594007 22.9453892,13.5836014 C23.5976011,10.7078021 24.5804692,8.32343687 25.89096,6.43050568 C27.2014509,4.46476944 29.1125833,2.93586348 31.6273909,1.84378779 C34.139165,0.751712099 36.7753144,0.314881823 39.5419061,0.533296961" id="Fill-3" fill="#000000" mask="url(#mask-2)"></path>
                </g>
                <path d="M229.972925,91.186542 C231.283416,97.2293608 230.75558,102.398519 228.392449,106.694017 C226.020218,110.989514 222.72579,114.156534 218.509164,116.195075 C215.154065,117.872625 211.66549,118.706849 208.022204,118.706849 C204.673172,118.706849 201.527387,118.036436 198.575749,116.686509 C195.627145,115.339616 193.09717,113.392081 190.985823,110.843904 C188.070588,107.058042 186.838969,102.70794 187.272766,97.7935999 C187.709596,92.8792593 189.423548,89.0782292 192.408555,86.3814089 C194.371258,84.6340878 196.679785,83.5420121 199.340202,83.1051819 C201.994553,82.6683516 204.530595,82.9595718 206.930128,83.9788424 C209.55111,85.1437232 211.586618,87.0002518 213.045752,89.5484284 C214.501853,92.0996386 215.232937,95.0816119 215.232937,98.5034491 L208.134445,98.5034491 C208.134445,94.3535615 206.781485,91.6597748 204.093765,90.422089 C202.925851,89.9124537 201.706366,89.7668436 200.432278,89.9852587 C199.15819,90.2036738 198.050946,90.7497117 197.101447,91.6233722 C195.572541,93.0097017 194.644277,95.227222 194.316654,98.2850339 C193.992065,101.342846 194.659445,104.036633 196.336994,106.366394 C198.014544,108.33213 200.034884,109.751829 202.398014,110.625489 C204.761145,111.49915 207.036302,111.826772 209.223487,111.608357 C211.410672,111.389942 213.482582,110.807502 215.451352,109.861036 C218.651741,108.33213 220.926898,106.038771 222.276825,102.980959 C223.620685,99.9231475 223.893704,96.5013103 223.092849,92.7154479 C222.656018,90.6769066 222.040209,88.8749818 221.239353,87.3096733 C220.432431,85.7443648 219.543603,84.3610689 218.560734,83.1597857 C217.577866,81.9585024 216.085363,80.7208166 214.083224,79.4467283 C212.081085,78.17264 210.136584,77.0441618 208.240619,76.0612937 C206.350722,75.0784256 203.617499,73.713331 200.053085,71.9660098 C197.717256,70.8739342 195.721185,69.6028794 194.043635,68.1437449 C192.369119,66.687644 191.164802,65.2133418 190.442819,63.7208384 C189.714769,62.228335 189.205133,60.9026764 188.913913,59.7347621 C188.616626,58.5698814 188.474049,57.4050007 188.474049,56.2401199 C188.474049,53.5493668 189.168731,50.9981566 190.548993,48.5955901 C191.929255,46.1930236 193.719046,44.482105 195.900164,43.4628344 C200.56272,41.278683 204.858218,41.0602679 208.786657,42.807589 C212.211528,44.3364949 214.501853,47.0666842 215.669767,50.9981566 C216.689038,54.5656039 216.43422,57.8418309 214.905314,60.8268378 C217.963126,61.8461085 221.196884,62.3193413 224.621754,62.2465362 L224.843203,69.2358206 L223.638886,69.2358206 C220.653879,69.2358206 217.77808,68.8899967 215.011488,68.1983487 C212.244897,67.5067008 210.024343,66.7240465 208.35286,65.850386 C206.675311,64.9767254 205.113036,63.9574548 203.653901,62.7925741 C202.1978,61.6307269 201.2301,60.7904353 200.762934,60.2808 C200.289701,59.7741982 199.940844,59.3343344 199.725462,58.9703092 L202.564859,56.8953654 L205.401222,54.8204215 C206.059501,55.6940821 207.115175,56.6769502 208.565208,57.7690259 C209.296292,56.38573 209.390332,54.784019 208.844294,52.9638929 C208.295223,51.1468003 207.29112,49.9060809 205.841086,49.2508355 C203.945121,48.377175 201.61536,48.5955901 198.848768,49.9060809 C198.050946,50.2731397 197.301661,51.055794 196.610013,52.2540437 C195.915332,53.4553269 195.572541,54.8204215 195.572541,56.3493275 C195.572541,60.1382234 198.084315,63.2294043 203.110897,65.6319709 C205.21921,66.6512415 206.799686,67.4156945 207.861426,67.9253298 C208.917099,68.4349651 210.315563,69.1448143 212.062884,70.0548774 C213.810205,70.9649405 215.120696,71.7111922 215.99739,72.2936326 C216.868017,72.8791065 217.981328,73.6223246 219.325187,74.5323877 C220.672081,75.4454843 221.706519,76.2797088 222.437603,77.0441618 C223.165654,77.8086148 223.981677,78.7368791 224.894773,79.8289548 C225.80787,80.9210305 226.53592,82.0131062 227.081958,83.1051819 C227.627996,84.1972576 228.171,85.4349433 228.717038,86.8182392 C229.263076,88.2045686 229.681705,89.657636 229.972925,91.186542" id="Fill-6" fill="#000000"></path>
                <g id="Group-10" transform="translate(239.556286, 40.405147)">
                    <mask id="mask-4" fill="white">
                        <use xlink:href="#path-3"></use>
                    </mask>
                    <g id="Clip-9"></g>
                    <path d="M64.8986281,92.9370337 L70.6866293,96.8685061 C66.6095467,102.908291 61.2978119,106.111713 54.7423242,106.478772 L53.7594561,106.478772 C50.483229,106.478772 47.4436184,105.820493 44.6406241,104.510002 C41.8376298,103.202545 39.6716797,101.597801 38.1427738,99.7048694 C37.7817821,99.2710726 37.1568721,98.4671836 36.2862451,97.3023029 C35.0485593,95.7764304 34.0838924,94.6115497 33.389211,93.8076607 C32.697563,93.0068052 31.754131,92.0421383 30.5528477,90.9166936 C29.3485309,89.7851819 28.1108451,88.9843264 26.8367568,88.5141271 C25.5626685,88.0378608 24.2006075,87.8042779 22.7445065,87.8042779 L0.24774737,87.8042779 L0.24774737,0.219807722 L27.3281909,0.219807722 L27.3281909,7.20605858 L7.3432058,7.20605858 L7.3432058,32.4360405 L22.0922947,32.4360405 L22.0922947,39.5345325 L7.3432058,39.5345325 L7.3432058,80.7057859 L22.7445065,80.7057859 C25.001463,80.7057859 27.1158428,81.0667776 29.075512,81.7948281 C31.0442818,82.5228786 32.8462067,83.6149542 34.4873537,85.0710552 C36.1224337,86.5301896 37.396522,87.7648419 38.3065851,88.787146 C39.2136146,89.8064167 40.3997302,91.2261151 41.8558311,93.0432077 C42.6566866,94.0624783 43.2360934,94.7905288 43.6031522,95.2303926 C44.1855926,95.885638 44.9864481,96.5378499 46.0026852,97.1930953 C47.0219558,97.8483407 48.2960441,98.3974121 49.8249501,98.8312088 C51.353856,99.2710726 52.8888291,99.4500517 54.4177351,99.3802802 C58.6373942,99.1618651 62.1320364,97.0141162 64.8986281,92.9370337" id="Fill-8" fill="#000000" mask="url(#mask-4)"></path>
                </g>
                <path d="M188.827457,132.225533 C188.791055,131.809937 188.68488,131.448946 188.508935,131.133457 C188.332989,130.817969 188.105474,130.55405 187.826388,130.350803 C187.547302,130.141488 187.222712,129.986778 186.85262,129.87757 C186.482528,129.765329 186.085134,129.713759 185.660438,129.713759 C185.077997,129.713759 184.562295,129.832067 184.110297,130.068683 C183.664366,130.302266 183.288206,130.620788 182.984852,131.015149 C182.681498,131.406476 182.447915,131.858474 182.293204,132.362042 C182.13546,132.865611 182.056588,133.384347 182.056588,133.91825 C182.056588,134.549227 182.129393,135.131668 182.275003,135.665571 C182.420613,136.199475 182.645095,136.663607 182.94845,137.057968 C183.251804,137.452328 183.627963,137.755683 184.076928,137.977132 C184.525892,138.195547 185.053729,138.304754 185.660438,138.304754 C186.097268,138.304754 186.497696,138.228916 186.867788,138.086339 C187.240914,137.940729 187.568536,137.737482 187.85369,137.482664 C188.135809,137.227846 188.372426,136.924492 188.554438,136.566534 C188.736451,136.205542 188.857792,135.817249 188.918463,135.392552 L189.610111,135.392552 C189.534273,135.950724 189.385629,136.448226 189.152046,136.882022 C188.92453,137.321886 188.63331,137.688945 188.278386,137.983199 C187.929528,138.283519 187.526067,138.508002 187.080136,138.668779 C186.628138,138.826524 186.157939,138.902362 185.660438,138.902362 C184.895985,138.902362 184.240739,138.765853 183.703802,138.492834 C183.163831,138.222849 182.7179,137.852756 182.37511,137.394691 C182.029286,136.933593 181.774468,136.402722 181.610657,135.802081 C181.443812,135.198406 181.36494,134.570462 181.36494,133.91825 C181.36494,133.263005 181.455946,132.644162 181.647059,132.058688 C181.832106,131.479281 182.111192,130.969646 182.475217,130.529782 C182.836208,130.095985 183.288206,129.750161 183.82211,129.495344 C184.35298,129.240526 184.96879,129.113117 185.660438,129.113117 C186.170073,129.113117 186.643306,129.176822 187.089237,129.30423 C187.532134,129.431639 187.926495,129.622753 188.269285,129.87757 C188.618143,130.132388 188.897229,130.456977 189.118677,130.851338 C189.337092,131.245698 189.470568,131.703763 189.519105,132.225533 L188.827457,132.225533 Z" id="Fill-11" fill="#000000"></path>
                <path d="M191.484841,134.008953 C191.484841,134.567125 191.563713,135.101029 191.721458,135.616731 C191.879202,136.135467 192.109751,136.593532 192.413106,136.990927 C192.71646,137.394388 193.092619,137.71291 193.541584,137.949526 C193.990548,138.186143 194.506251,138.304451 195.088691,138.304451 C195.671131,138.304451 196.186834,138.186143 196.635798,137.949526 C197.084763,137.71291 197.460922,137.394388 197.764276,136.990927 C198.067631,136.593532 198.29818,136.135467 198.455924,135.616731 C198.613669,135.101029 198.692541,134.567125 198.692541,134.008953 C198.692541,133.447748 198.613669,132.913844 198.455924,132.398142 C198.29818,131.882439 198.067631,131.421341 197.764276,131.023946 C197.460922,130.623519 197.084763,130.301963 196.635798,130.06838 C196.186834,129.831764 195.671131,129.713455 195.088691,129.713455 C194.506251,129.713455 193.990548,129.831764 193.541584,130.06838 C193.092619,130.301963 192.71646,130.623519 192.413106,131.023946 C192.109751,131.421341 191.879202,131.882439 191.721458,132.398142 C191.563713,132.913844 191.484841,133.447748 191.484841,134.008953 M190.793193,134.008953 C190.793193,133.341574 190.887233,132.71363 191.075313,132.125123 C191.263393,131.536615 191.542479,131.017879 191.90347,130.568915 C192.267495,130.11995 192.71646,129.765026 193.250364,129.504141 C193.784267,129.243256 194.397043,129.112814 195.088691,129.112814 C195.780339,129.112814 196.393115,129.243256 196.927018,129.504141 C197.460922,129.765026 197.909887,130.11995 198.273912,130.568915 C198.637937,131.017879 198.913989,131.536615 199.102069,132.125123 C199.290149,132.71363 199.384189,133.341574 199.384189,134.008953 C199.384189,134.676333 199.290149,135.30731 199.102069,135.901884 C198.913989,136.493425 198.637937,137.015195 198.273912,137.458092 C197.909887,137.90099 197.460922,138.249847 196.927018,138.510732 C196.393115,138.771617 195.780339,138.902059 195.088691,138.902059 C194.397043,138.902059 193.784267,138.771617 193.250364,138.510732 C192.71646,138.249847 192.267495,137.90099 191.90347,137.458092 C191.542479,137.015195 191.263393,136.493425 191.075313,135.901884 C190.887233,135.30731 190.793193,134.676333 190.793193,134.008953" id="Fill-13" fill="#000000"></path>
                <path d="M199.984224,129.929444 L199.984224,129.331836 L201.65874,129.331836 L201.65874,127.399468 C201.65874,127.074879 201.713343,126.79276 201.822551,126.556143 C201.931759,126.319527 202.080402,126.12538 202.268482,125.97977 C202.456562,125.83416 202.674977,125.724952 202.923727,125.655181 C203.172478,125.579342 203.436396,125.545973 203.715482,125.545973 C203.921763,125.545973 204.194782,125.573275 204.534539,125.63698 L204.534539,126.234588 C204.194782,126.17695 203.921763,126.146615 203.715482,126.146615 C203.327189,126.146615 203.002599,126.231554 202.741715,126.410533 C202.48083,126.583445 202.350388,126.935336 202.350388,127.457106 L202.350388,129.331836 L204.297923,129.331836 L204.297923,129.929444 L202.350388,129.929444 L202.350388,138.687284 L201.65874,138.687284 L201.65874,129.929444 L199.984224,129.929444 Z" id="Fill-15" fill="#000000"></path>
                <path d="M204.371638,129.929444 L204.371638,129.331836 L206.046154,129.331836 L206.046154,127.399468 C206.046154,127.074879 206.100758,126.79276 206.209965,126.556143 C206.319173,126.319527 206.467816,126.12538 206.655896,125.97977 C206.843976,125.83416 207.062391,125.724952 207.311141,125.655181 C207.559892,125.579342 207.82381,125.545973 208.102896,125.545973 C208.309177,125.545973 208.582196,125.573275 208.921953,125.63698 L208.921953,126.234588 C208.582196,126.17695 208.309177,126.146615 208.102896,126.146615 C207.714603,126.146615 207.390014,126.231554 207.129129,126.410533 C206.868244,126.583445 206.737802,126.935336 206.737802,127.457106 L206.737802,129.331836 L208.685337,129.331836 L208.685337,129.929444 L206.737802,129.929444 L206.737802,138.687284 L206.046154,138.687284 L206.046154,129.929444 L204.371638,129.929444 Z" id="Fill-17" fill="#000000"></path>
                <path d="M216.9117,133.499318 C216.884398,132.989683 216.802493,132.507349 216.653849,132.049284 C216.508239,131.597286 216.292857,131.193825 216.007704,130.851034 C215.719518,130.50521 215.373694,130.229158 214.964165,130.022877 C214.560704,129.816596 214.093538,129.713455 213.568735,129.713455 C213.010563,129.713455 212.519129,129.819629 212.091399,130.028944 C211.666703,130.244326 211.305712,130.523412 211.017525,130.869236 C210.723271,131.21506 210.498789,131.618521 210.341045,132.076586 C210.180267,132.540718 210.086227,133.013951 210.046791,133.499318 L216.9117,133.499318 Z M210.02859,134.096926 L210.02859,134.206134 C210.02859,134.755205 210.104428,135.276974 210.250038,135.774476 C210.395649,136.271977 210.61103,136.708807 210.899217,137.084966 C211.181336,137.461126 211.539294,137.755379 211.973091,137.976828 C212.406888,138.195243 212.907423,138.304451 213.477729,138.304451 C214.418127,138.304451 215.158312,138.058734 215.707383,137.5673 C216.253421,137.075866 216.629581,136.393318 216.838895,135.519658 L217.527509,135.519658 C217.324262,136.6087 216.875298,137.448992 216.19275,138.031432 C215.504136,138.613872 214.597106,138.902059 213.468628,138.902059 C212.780014,138.902059 212.173305,138.777684 211.660636,138.531967 C211.144934,138.283216 210.711137,137.943459 210.368347,137.509662 C210.022523,137.081933 209.764671,136.572298 209.594793,135.980757 C209.421881,135.395283 209.339975,134.761272 209.339975,134.078725 C209.339975,133.426513 209.424915,132.798569 209.603894,132.194894 C209.776806,131.597286 210.040724,131.066416 210.395649,130.614418 C210.74754,130.156353 211.18437,129.792328 211.712206,129.519309 C212.243077,129.249323 212.861919,129.112814 213.577836,129.112814 C214.233081,129.112814 214.815522,129.234156 215.31909,129.476839 C215.822658,129.719523 216.241287,130.047145 216.584077,130.468808 C216.923834,130.887437 217.181686,131.372804 217.354597,131.921875 C217.530543,132.477014 217.618516,133.065521 217.618516,133.696498 C217.618516,133.760203 217.615482,133.826941 217.609415,133.908846 C217.606382,133.987718 217.603348,134.051423 217.603348,134.096926 L210.02859,134.096926 Z" id="Fill-19" fill="#000000"></path>
                <path d="M226.358762,133.499318 C226.33146,132.989683 226.249554,132.507349 226.10091,132.049284 C225.9553,131.597286 225.739919,131.193825 225.454766,130.851034 C225.166579,130.50521 224.820755,130.229158 224.411227,130.022877 C224.007765,129.816596 223.5406,129.713455 223.015797,129.713455 C222.457625,129.713455 221.96619,129.819629 221.538461,130.028944 C221.113765,130.244326 220.752773,130.523412 220.464586,130.869236 C220.170333,131.21506 219.94585,131.618521 219.788106,132.076586 C219.627328,132.540718 219.533288,133.013951 219.493852,133.499318 L226.358762,133.499318 Z M219.475651,134.096926 L219.475651,134.206134 C219.475651,134.755205 219.55149,135.276974 219.6971,135.774476 C219.84271,136.271977 220.058092,136.708807 220.346278,137.084966 C220.628398,137.461126 220.986356,137.755379 221.420153,137.976828 C221.853949,138.195243 222.354484,138.304451 222.92479,138.304451 C223.865189,138.304451 224.605373,138.058734 225.154445,137.5673 C225.700483,137.075866 226.076642,136.393318 226.285957,135.519658 L226.974571,135.519658 C226.771323,136.6087 226.322359,137.448992 225.639812,138.031432 C224.951197,138.613872 224.044168,138.902059 222.91569,138.902059 C222.227075,138.902059 221.620366,138.777684 221.107698,138.531967 C220.591995,138.283216 220.158198,137.943459 219.815408,137.509662 C219.469584,137.081933 219.211733,136.572298 219.041854,135.980757 C218.868942,135.395283 218.787037,134.761272 218.787037,134.078725 C218.787037,133.426513 218.871976,132.798569 219.050955,132.194894 C219.223867,131.597286 219.487785,131.066416 219.84271,130.614418 C220.194601,130.156353 220.631431,129.792328 221.159268,129.519309 C221.690138,129.249323 222.308981,129.112814 223.024897,129.112814 C223.680143,129.112814 224.262583,129.234156 224.766151,129.476839 C225.269719,129.719523 225.688348,130.047145 226.031139,130.468808 C226.370896,130.887437 226.628747,131.372804 226.801659,131.921875 C226.977604,132.477014 227.065577,133.065521 227.065577,133.696498 C227.065577,133.760203 227.062544,133.826941 227.056477,133.908846 C227.053443,133.987718 227.050409,134.051423 227.050409,134.096926 L219.475651,134.096926 Z" id="Fill-21" fill="#000000"></path>
            </g>
        </g>
    </g>
</svg>