<?xml version="1.0" encoding="UTF-8" standalone="no"?>
<svg width="393px" height="164px" viewBox="0 0 393 164" version="1.1" xmlns="http://www.w3.org/2000/svg" xmlns:xlink="http://www.w3.org/1999/xlink">
    <!-- Generator: Sketch 45.2 (43514) - http://www.bohemiancoding.com/sketch -->
    <title>the empty</title>
    <desc>Created with Sketch.</desc>
    <defs>
        <polygon id="path-1" points="0 32.1504819 0 0.0815089628 26.4252501 0.0815089628 26.4252501 32.1504819 3.27959328e-17 32.1504819"></polygon>
        <polygon id="path-3" points="25.2120671 0.720504211 25.2120671 23.9752752 0.0491815553 23.9752752 0.0491815553 0.720504211 25.2120671 0.720504211"></polygon>
        <polygon id="path-5" points="7.944829 8.73174012 0.298167141 8.73174012 0.298167141 0.0921926686 7.944829 0.0921926686"></polygon>
    </defs>
    <g id="Welcome" stroke="none" stroke-width="1" fill="none" fill-rule="evenodd">
        <g id="About-us" transform="translate(-990.000000, -6145.000000)">
            <g id="the-empty" transform="translate(990.000000, 6145.000000)">
                <rect id="Rectangle-2-Copy-2" fill="#D8D8D8" x="0.604275305" y="0" width="392.093587" height="164"></rect>
                <g id="Group-3" transform="translate(89.000000, 93.849987)">
                    <mask id="mask-2" fill="white">
                        <use xlink:href="#path-1"></use>
                    </mask>
                    <g id="Clip-2"></g>
                    <path d="M26.3203216,4.12497807 C26.2514623,4.89882549 26.1301388,5.65627785 25.95963,6.38421907 C25.9038868,6.58423896 25.733378,6.68260939 25.4513828,6.68260939 C25.1988987,6.68260939 25.044785,6.58423896 24.9890417,6.38421907 C24.7365576,5.09228735 24.1922412,4.22990653 23.3593715,3.80691366 C22.5297809,3.38392079 21.5231234,3.17406386 20.3361201,3.17406386 C20.0278928,3.17406386 19.7458975,3.18062189 19.4901344,3.19701696 C19.2376503,3.21013302 18.9687711,3.23308612 18.6867758,3.25603922 C18.4342917,3.28555035 18.1457384,3.30850345 17.821116,3.32161951 C17.4964936,3.33801458 17.2243354,3.34457261 16.9980834,3.34457261 L16.2767002,3.34457261 C16.0537272,3.34457261 15.8405912,3.32817754 15.6438504,3.30194542 L15.6438504,27.3141687 C15.6438504,27.4027021 15.6635245,27.606001 15.7061516,27.9306235 C15.7487788,28.2519669 15.791406,28.5864264 15.8340332,28.9208859 C15.8766604,29.2619034 15.9258456,29.5734097 15.9815889,29.855405 C16.0373321,30.1374002 16.0799593,30.2882349 16.1094704,30.317746 C16.3914657,30.5997413 16.6734609,30.77025 16.9554562,30.8259933 C17.2341724,30.8817365 17.5063306,30.9243637 17.7588147,30.9538749 C18.1522965,30.980107 18.490035,31.0227342 18.7720302,31.0817564 C19.0540255,31.1342207 19.2671614,31.3047294 19.408159,31.5867247 C19.4901344,31.7277223 19.4901344,31.8457668 19.408159,31.9441372 C19.3229047,32.0457867 19.181907,32.0916929 18.9851662,32.0916929 C17.2636835,32.0916929 15.552038,32.108088 13.8469504,32.1375991 C12.1418629,32.1638312 10.4302173,32.1507152 8.70873466,32.0916929 C8.42673941,32.0654608 8.27262573,31.9539743 8.2431146,31.7572334 C8.21688248,31.5572135 8.34476405,31.432611 8.6267593,31.3768677 C9.21698191,31.2621022 9.68260197,31.1407787 10.0203405,31.0161761 C10.358079,30.8882946 10.6105631,30.6981117 10.7810718,30.4456276 C10.9515806,30.1898645 11.0565091,29.8685211 11.0991362,29.4717603 C11.1417634,29.0782786 11.1614375,28.5405202 11.1614375,27.8650432 L11.1614375,3.21669105 L4.60996651,3.21669105 C3.79021288,3.21669105 3.0721087,3.50524432 2.45237496,4.08235088 C1.83264121,4.65945743 1.35390509,5.31526034 1.0161666,6.04975959 C0.930912222,6.22026835 0.77024051,6.29568568 0.527593436,6.27929061 C0.288225376,6.26617455 0.140669723,6.16124608 0.084926476,5.96450521 C0.0554153454,5.84973971 0.0357412582,5.74481124 0.0193461857,5.6464408 C0.00623012758,5.55134938 -0.000327901452,5.42674683 -0.000327901452,5.28574921 C-0.000327901452,4.78078097 0.084926476,4.2233485 0.255435231,3.62000983 C0.422664971,3.01011313 0.606289784,2.40021643 0.803030656,1.77720367 C0.888285033,1.52471956 0.950586309,1.2853515 0.993213498,1.05909949 C1.03584069,0.832847492 1.0850259,0.609874505 1.14076915,0.380343489 C1.1965124,0.242624879 1.30471988,0.150812472 1.45883356,0.108185284 C1.61294724,0.0655580948 1.76050289,0.0753951384 1.90150052,0.127859371 C2.07200927,0.242624879 2.31137733,0.350832358 2.6196047,0.445923779 C2.93111108,0.544294214 3.26229154,0.639385635 3.61642511,0.721360998 C3.96727967,0.803336361 4.30501816,0.868916652 4.6296406,0.914822855 C4.95426304,0.954171029 5.20018912,0.973845116 5.37069788,0.973845116 L23.4643,0.973845116 C23.6348087,0.973845116 23.8545027,0.937775957 24.1233819,0.868916652 C24.3889821,0.800057347 24.6349082,0.737756071 24.8611602,0.67873381 C25.0021578,0.622990563 25.1628295,0.586921403 25.3464543,0.573805345 C25.5300791,0.560689287 25.6940299,0.537736185 25.8350275,0.508225055 C25.9760251,0.481992939 26.1104647,0.498388011 26.2350673,0.550852244 C26.3629488,0.609874505 26.4252501,0.70824494 26.4252501,0.849242565 L26.4252501,1.77720367 C26.4252501,2.56744617 26.3891809,3.35113064 26.3203216,4.12497807" id="Fill-1" fill="#231916" mask="url(#mask-2)"></path>
                </g>
                <path d="M144.72718,123.617842 C144.189421,123.59161 143.6615,123.581773 143.140137,123.598168 C142.618773,123.611284 142.103968,123.617842 141.595721,123.617842 L139.484035,123.617842 C139.00202,123.617842 138.398682,123.604726 137.664182,123.575215 C136.932962,123.548983 136.368972,123.434218 135.97549,123.237477 L136.44111,122.562 C136.664083,122.673486 136.818197,122.72923 136.903451,122.72923 C137.129703,122.72923 137.319886,122.637417 137.474,122.457071 C137.628113,122.273447 137.755995,122.040636 137.854365,121.758641 C137.952736,121.476646 138.024874,121.188093 138.067501,120.892981 C138.110128,120.594591 138.129802,120.335549 138.129802,120.109297 L138.129802,111.695346 L124.26285,111.695346 L124.26285,120.024043 C124.26285,121.09628 124.443196,121.827501 124.810445,122.220982 C125.177695,122.617743 125.895799,122.788252 126.968037,122.72923 L127.010664,123.49324 C126.279444,123.519472 125.564619,123.542425 124.876026,123.552262 C124.184154,123.568657 123.485724,123.575215 122.784014,123.575215 C122.049515,123.575215 121.331411,123.568657 120.626423,123.552262 C119.921435,123.542425 119.203331,123.519472 118.468831,123.49324 C118.186836,123.49324 118.032722,123.381753 118.00649,123.152222 C117.976979,122.929249 118.101582,122.788252 118.383577,122.72923 C118.836081,122.643975 119.193494,122.568558 119.462373,122.49642 C119.731252,122.42756 119.934551,122.302958 120.075548,122.119333 C120.216546,121.932429 120.308359,121.686503 120.350986,121.374997 C120.393613,121.070048 120.413287,120.647055 120.413287,120.109297 L120.413287,102.940377 C120.413287,102.294411 120.259173,101.900929 119.947667,101.759932 C119.63944,101.618934 119.327933,101.53368 119.019706,101.507448 C118.737711,101.477936 118.475389,101.435309 118.236021,101.379566 C117.996653,101.320544 117.80647,101.182825 117.668752,100.956573 C117.553986,100.815576 117.537591,100.687694 117.622846,100.576207 C117.7081,100.461442 117.862214,100.405699 118.088466,100.405699 C119.442699,100.405699 120.810048,100.415536 122.190513,100.428652 C123.570978,100.441768 124.938327,100.504069 126.29256,100.615556 C126.571276,100.645067 126.705716,100.772948 126.6926,100.9992 C126.679484,101.225452 126.531928,101.336939 126.249933,101.336939 C125.771197,101.36645 125.318693,101.50089 124.8957,101.736979 C124.472707,101.976347 124.26285,102.366549 124.26285,102.901029 L124.26285,109.91812 L138.129802,109.91812 L138.129802,102.940377 C138.129802,102.605917 138.080617,102.337038 137.982247,102.140297 C137.883876,101.943557 137.755995,101.789443 137.601881,101.674677 C137.447767,101.559912 137.277259,101.491053 137.093634,101.461541 C136.910009,101.435309 136.732942,101.418914 136.565713,101.418914 C136.227974,101.36645 135.939421,101.320544 135.700053,101.294312 C135.457406,101.26808 135.30985,101.097571 135.254107,100.786064 C135.198363,100.504069 135.355756,100.363072 135.719727,100.363072 C137.100192,100.363072 138.483936,100.379467 139.864401,100.405699 C141.244866,100.43521 142.612215,100.490953 143.966448,100.576207 C144.248444,100.60244 144.39272,100.717205 144.409115,100.913946 C144.422231,101.110687 144.287792,101.238568 144.005796,101.294312 C143.471317,101.379566 142.999139,101.507448 142.592541,101.674677 C142.182664,101.841907 141.979365,102.251784 141.979365,102.901029 L141.979365,120.024043 C141.979365,120.135529 141.992482,120.312596 142.018714,120.551964 C142.048225,120.794611 142.090852,121.047095 142.146595,121.315974 C142.202338,121.581574 142.267919,121.827501 142.336778,122.053753 C142.405637,122.280005 142.484334,122.407886 142.569588,122.437397 C142.710586,122.46035 142.858141,122.483303 143.015534,122.49642 C143.166369,122.512815 143.317203,122.519373 143.458201,122.519373 C143.710685,122.519373 143.973006,122.542326 144.241885,122.584953 C144.507486,122.624301 144.769807,122.742346 145.022291,122.942365 L144.72718,123.617842 Z" id="Fill-4" fill="#231916"></path>
                <path d="M162.315158,123.281743 L161.977419,123.448973 C161.80691,123.504716 161.485567,123.534228 161.003552,123.534228 C160.524816,123.534228 160.010011,123.52767 159.459136,123.511275 C158.911541,123.498158 158.390177,123.485042 157.895046,123.471926 C157.403194,123.45881 157.055618,123.448973 156.858878,123.448973 C156.409653,123.448973 155.957149,123.45881 155.507924,123.471926 C155.05542,123.485042 154.606195,123.4916 154.153691,123.4916 C153.140475,123.4916 152.123981,123.498158 151.110765,123.511275 C150.094271,123.52767 149.094171,123.504716 148.107188,123.448973 C147.854704,123.422741 147.73338,123.288302 147.749775,123.048933 C147.762891,122.806286 147.897331,122.688242 148.149815,122.688242 C148.940057,122.66201 149.461421,122.412805 149.713905,121.950464 C149.969668,121.481565 150.094271,120.871668 150.094271,120.107657 L150.094271,102.774787 C150.094271,102.296051 149.959831,101.977986 149.694231,101.823872 C149.425352,101.66648 149.136798,101.561551 148.828571,101.505808 C148.602319,101.450065 148.369509,101.391043 148.130141,101.338578 C147.890773,101.279556 147.657963,101.184465 147.431711,101.040188 C147.205459,100.928702 147.1366,100.787704 147.218575,100.617195 C147.303829,100.446686 147.474338,100.364711 147.726822,100.364711 C147.982585,100.364711 148.310487,100.371269 148.720364,100.387664 C149.13024,100.397501 149.589302,100.404059 150.094271,100.404059 C150.914024,100.43357 151.799358,100.456523 152.760109,100.469639 C153.717582,100.486035 154.691449,100.492593 155.678432,100.492593 C157.08513,100.492593 158.367224,100.463081 159.524716,100.404059 C160.678929,100.351595 161.456056,100.253225 161.849538,100.112227 C162.046279,100.053205 162.216787,100.0696 162.357785,100.151575 C162.498783,100.236829 162.554526,100.351595 162.525015,100.492593 C162.469271,101.027072 162.384017,101.518924 162.272531,101.971428 C162.161044,102.423932 162.046279,102.873157 161.934792,103.322382 C161.879049,103.522402 161.836422,103.702748 161.80691,103.873257 C161.777399,104.043765 161.738051,104.214274 161.682308,104.378225 C161.623286,104.578245 161.456056,104.676615 161.174061,104.676615 C160.892065,104.676615 160.737952,104.565129 160.708441,104.338877 C160.678929,103.860141 160.567443,103.479775 160.370702,103.19778 C160.173961,102.915784 159.918198,102.69609 159.609971,102.541977 C159.298464,102.387863 158.94761,102.282935 158.554128,102.223912 C158.157367,102.171448 157.760607,102.141937 157.367125,102.141937 C157.140873,102.141937 156.924458,102.148495 156.714601,102.161611 C156.501465,102.174727 156.281771,102.181285 156.055519,102.181285 C155.858778,102.181285 155.648921,102.187843 155.422669,102.200959 C155.196417,102.217354 154.970165,102.223912 154.747192,102.223912 L153.983182,102.223912 L153.983182,110.300125 L159.059096,110.300125 C159.200094,110.300125 159.383719,110.25094 159.609971,110.152569 C159.832944,110.054199 160.072312,109.962387 160.328075,109.877132 L160.285448,109.877132 C160.5117,109.765646 160.714999,109.608253 160.898623,109.414791 C161.082248,109.214771 161.259315,109.090169 161.426545,109.031146 C161.623286,108.975403 161.787236,108.998356 161.911839,109.096727 C162.03972,109.195097 162.088906,109.313142 162.062674,109.454139 C162.003651,109.821389 161.954466,110.257498 161.911839,110.765745 C161.872491,111.273992 161.823306,111.710101 161.764283,112.074072 C161.70854,112.415089 161.652797,112.752828 161.597054,113.090566 C161.538031,113.428305 161.485567,113.795554 161.426545,114.192315 C161.400313,114.333313 161.298663,114.431683 161.131433,114.484148 C160.960925,114.54317 160.806811,114.513659 160.665813,114.402172 C160.328075,114.202152 160.164124,114.067713 160.180519,113.998853 C160.193635,113.926715 160.187077,113.821787 160.157566,113.680789 C160.072312,113.428305 159.983778,113.188937 159.885408,112.965964 C159.787038,112.739712 159.695225,112.595435 159.609971,112.542971 C159.468973,112.428205 159.186978,112.336393 158.763985,112.267534 C158.340992,112.195395 157.868814,112.14621 157.347451,112.119978 C156.826087,112.090467 156.311282,112.074072 155.803035,112.074072 L154.534056,112.074072 L153.983182,112.074072 L153.983182,120.278166 C154.435686,120.8979 155.071815,121.350404 155.888289,121.632399 C156.704764,121.914394 157.478611,122.055392 158.213111,122.055392 C159.11484,122.055392 159.947709,121.838977 160.708441,121.399589 C161.469172,120.96348 161.977419,120.248655 162.229903,119.261672 C162.256135,119.179696 162.328274,119.114116 162.443039,119.074768 C162.554526,119.028862 162.666012,119.015746 162.780778,119.028862 C162.892264,119.045257 162.997193,119.087884 163.095563,119.156743 C163.197213,119.228882 163.230003,119.304299 163.203771,119.389553 L162.315158,123.281743 Z" id="Fill-6" fill="#231916"></path>
                <path d="M194.047165,122.372473 C193.948794,123.034834 193.856982,123.703753 193.771728,124.37923 L193.643846,125.395724 C193.588103,125.589186 193.447105,125.690835 193.224132,125.690835 L192.460122,125.900692 L187.092375,125.900692 C186.44313,125.900692 185.793885,125.90725 185.14792,125.923645 C184.498675,125.936762 183.84943,125.94332 183.200185,125.94332 C182.016461,125.94332 180.849131,125.930204 179.691639,125.900692 C178.537426,125.87446 177.452072,125.805601 176.435578,125.690835 C176.153583,125.690835 176.019143,125.572791 176.035538,125.330144 C176.048654,125.090776 176.19621,124.972731 176.478205,124.972731 C177.012684,124.94322 177.445514,124.831734 177.770137,124.631714 C178.09148,124.438252 178.337406,124.169373 178.507915,123.828355 C178.678424,123.493896 178.78991,123.106972 178.845654,122.667584 C178.901397,122.231475 178.930908,121.772413 178.930908,121.293677 L178.930908,97.7405157 C178.930908,97.3765451 178.888281,97.0814338 178.806305,96.8551818 C178.721051,96.6289298 178.599728,96.455142 178.445614,96.3272604 C178.288221,96.1993789 178.120991,96.1075665 177.937367,96.0518232 C177.753742,95.99608 177.563559,95.9370577 177.366818,95.8813145 C177.055312,95.8255712 176.7602,95.7403169 176.478205,95.6288304 C176.19621,95.5173439 175.914215,95.3632302 175.632219,95.1632103 C175.405967,95.0517238 175.337108,94.9107262 175.422362,94.7402174 C175.507617,94.5697087 175.661731,94.4877333 175.887983,94.4877333 L192.122383,94.4877333 C192.292892,94.4877333 192.545376,94.3893629 192.883115,94.189343 C193.079856,94.1368788 193.256922,94.1434368 193.411036,94.2122961 C193.568429,94.2844344 193.63073,94.3893629 193.601219,94.5303605 C193.515965,95.317324 193.39792,96.1075665 193.243806,96.89453 C193.089693,97.6880515 192.925742,98.4487828 192.755233,99.1800031 C192.729001,99.2947686 192.69949,99.38986 192.673258,99.4783934 C192.643747,99.5603688 192.614236,99.6751343 192.588003,99.8128529 C192.53226,100.039105 192.361751,100.15387 192.079756,100.15387 C191.797761,100.15387 191.643647,100.039105 191.614136,99.8128529 C191.50265,98.5209212 191.073099,97.6650984 190.325483,97.2585006 C189.577868,96.8486238 188.626954,96.6420458 187.472741,96.6420458 L186.751358,96.6420458 C186.498873,96.6420458 186.246389,96.6584409 185.990626,96.684673 C185.71191,96.7141842 185.41352,96.7305792 185.102013,96.7305792 L184.216679,96.7305792 C183.990427,96.7305792 183.842872,96.7436953 183.774012,96.7699274 C183.701874,96.7994385 183.554318,96.7830435 183.328066,96.7305792 L183.328066,108.016947 L189.541799,108.016947 C189.682797,108.016947 189.895933,107.967762 190.177928,107.869392 C190.459923,107.771021 190.741918,107.652977 191.023914,107.511979 C191.332141,107.370981 191.607578,107.249658 191.846946,107.148008 C192.086314,107.049638 192.276497,106.990616 192.417495,106.961105 C192.588003,106.931593 192.742117,106.961105 192.883115,107.04308 C193.024112,107.131613 193.079856,107.2431 193.053624,107.384097 C192.994601,107.80709 192.938858,108.233362 192.883115,108.67275 C192.827372,109.108859 192.771628,109.53841 192.715885,109.961403 C192.545376,111.004129 192.417495,112.073088 192.335519,113.174837 C192.335519,113.345346 192.23387,113.456832 192.037129,113.512576 C191.840388,113.568319 191.656763,113.528971 191.489534,113.387973 C191.319025,113.217464 191.184585,113.020723 191.086215,112.794471 C190.987844,112.571498 190.909148,112.371478 190.853405,112.20097 C190.76815,111.948486 190.692733,111.696001 190.623874,111.440238 C190.551735,111.187754 190.443528,111.004129 190.305809,110.892643 C190.135301,110.722134 189.784446,110.587695 189.246688,110.489324 C188.712208,110.394233 188.128544,110.322094 187.492415,110.279467 C186.859565,110.23684 186.229994,110.217166 185.610261,110.217166 L184.088798,110.217166 L183.370694,110.217166 L183.370694,121.631415 C183.875662,122.506912 184.629835,123.129925 185.633214,123.51357 C186.633313,123.893936 187.597343,124.080839 188.528583,124.080839 C189.741819,124.080839 190.791103,123.759496 191.679716,123.11353 C192.56505,122.461006 193.16511,121.503534 193.476616,120.237834 C193.502849,120.123069 193.571708,120.05421 193.686473,120.024698 C193.79796,119.995187 193.912725,119.988629 194.024212,120.001745 C194.138977,120.01814 194.243906,120.060768 194.342276,120.129627 C194.440647,120.201765 194.476716,120.293578 194.447205,120.405064 C194.279975,121.054309 194.145535,121.710112 194.047165,122.372473" id="Fill-8" fill="#231916"></path>
                <path d="M230.852791,123.576199 C228.426321,123.576199 226.016245,123.494224 223.622564,123.323715 C223.452056,123.323715 223.324174,123.27453 223.242199,123.176159 C223.156944,123.077789 223.140549,122.959744 223.199571,122.815468 C223.255315,122.618727 223.288105,122.385917 223.3045,122.120317 C223.317616,121.851437 223.324174,121.576 223.324174,121.294005 C223.324174,119.772542 223.242199,118.234684 223.07169,116.68371 C222.901181,115.136016 222.720835,113.581763 222.520815,112.030789 C222.465072,111.555332 222.409329,111.152013 222.353586,110.827391 C222.297842,110.506047 222.248657,110.194541 222.202751,109.89615 C222.163403,109.601039 222.120776,109.29937 222.078148,108.991142 C222.0388,108.679636 222.002731,108.286154 221.97322,107.804139 C220.900982,109.555133 219.894325,111.322522 218.949969,113.112864 C218.005612,114.899927 217.054698,116.696827 216.093947,118.503564 C215.670954,119.320038 215.247961,120.123397 214.824968,120.913639 C214.401975,121.703882 213.969146,122.490845 213.516642,123.281088 C213.434666,123.422085 213.310064,123.500782 213.159229,123.510619 C213.001836,123.527014 212.854281,123.477829 212.713283,123.366342 C212.008295,122.549867 211.339376,121.667813 210.703247,120.723456 C210.070397,119.7791 209.457222,118.811791 208.866999,117.824808 C208.273497,116.837824 207.716065,115.847562 207.194702,114.844183 C206.673338,113.844084 206.174928,112.876775 205.692913,111.948814 C205.46994,111.49631 205.276478,111.115944 205.122364,110.804437 C204.968251,110.499489 204.820695,110.201099 204.679697,109.919104 C204.5387,109.637108 204.391144,109.341997 204.23703,109.030491 C204.079638,108.722263 203.876339,108.355014 203.620576,107.932021 C203.568111,108.496011 203.495973,109.030491 203.410719,109.538738 C203.325464,110.046985 203.243489,110.568348 203.158235,111.102828 C202.928704,112.571826 202.728684,114.034267 202.545059,115.499986 C202.361434,116.965706 202.269622,118.418309 202.269622,119.854518 L202.269622,120.529995 C202.269622,120.926755 202.27618,121.234983 202.289296,121.461235 C202.305691,121.687487 202.335202,121.857995 202.37455,121.969482 C202.417177,122.084247 202.489316,122.159665 202.587686,122.202292 C202.686057,122.244919 202.817217,122.290825 202.987726,122.349848 C203.128724,122.40887 203.292674,122.454776 203.47302,122.497403 C203.656645,122.543309 203.991104,122.67447 204.466561,122.900722 C204.692813,122.982697 204.778068,123.123695 204.722325,123.323715 C204.666581,123.517177 204.512468,123.618826 204.256705,123.618826 C203.046748,123.618826 201.836792,123.60571 200.639952,123.576199 C199.443111,123.546688 198.239713,123.50734 197.026478,123.448317 C196.770714,123.422085 196.639554,123.300762 196.626438,123.090905 C196.610043,122.877769 196.731366,122.743329 196.98385,122.687586 C197.210102,122.631843 197.436354,122.602332 197.662606,122.602332 C197.91509,122.5761 198.151179,122.543309 198.38071,122.497403 C198.603683,122.454776 198.774192,122.320336 198.888958,122.097363 C198.970933,121.926855 199.085699,121.435003 199.223417,120.618528 C199.364415,119.798774 199.521808,118.798675 199.689037,117.614951 C199.859546,116.427947 200.036613,115.113063 200.216959,113.663738 C200.400583,112.207856 200.580929,110.765089 200.74488,109.325602 C200.915389,107.889394 201.069502,106.525324 201.213779,105.223555 C201.354777,103.931623 201.479379,102.829874 201.590866,101.928145 C201.649888,101.560896 201.689236,101.232994 201.718747,100.934604 C201.748258,100.639492 201.77777,100.406682 201.807281,100.236174 C201.830234,100.068944 201.938441,99.9574574 202.122066,99.8984352 C202.305691,99.8426919 202.482758,99.872203 202.649987,99.9836895 C202.987726,100.265685 203.486136,100.928046 204.148497,101.970772 C204.814137,103.013499 205.551915,104.246408 206.371669,105.669501 C207.188143,107.095872 208.034129,108.610777 208.909626,110.217494 C209.778565,111.820932 210.598319,113.299767 211.362329,114.654 C211.952552,115.726238 212.388661,116.542713 212.670656,117.106703 C212.952651,117.670694 213.218251,118.165825 213.474014,118.588818 C214.11998,117.401815 214.749551,116.234485 215.35289,115.076993 C215.962786,113.92278 216.575962,112.752172 217.195696,111.568448 C217.618689,110.751973 218.04824,109.942057 218.487628,109.138698 C218.920457,108.33534 219.350008,107.522144 219.773001,106.705669 C219.913999,106.449906 220.071392,106.17119 220.238621,105.862963 C220.405851,105.551456 220.563244,105.269461 220.704241,105.016977 C221.127234,104.197223 221.576459,103.374191 222.055195,102.541321 C222.53721,101.708451 223.058574,100.885419 223.622564,100.068944 C223.763562,99.9279463 223.940629,99.8754821 224.150486,99.9181092 C224.363622,99.9640155 224.481666,100.068944 224.507898,100.236174 C224.930891,103.000383 225.314536,105.748197 225.652274,108.479616 C225.678506,108.709147 225.701459,108.961631 225.714576,109.243627 C225.730971,109.525622 225.763761,109.86336 225.819504,110.256842 C225.904758,111.132339 225.996571,112.138996 226.094941,113.280093 C226.193312,114.42119 226.317914,115.542613 226.475307,116.644362 C226.629421,117.742832 226.799929,118.739653 226.980275,119.644661 C227.167179,120.54639 227.383594,121.166123 227.639357,121.503862 C227.891841,121.897344 228.19351,122.153107 228.547644,122.267872 C228.898499,122.379359 229.246074,122.461334 229.580534,122.520356 C229.810065,122.5761 229.996968,122.595774 230.154361,122.582658 C230.308475,122.566263 230.597028,122.661354 231.020021,122.858095 L230.852791,123.576199 Z" id="Fill-10" fill="#231916"></path>
                <path d="M250.216028,108.926546 C249.793035,109.841391 249.229044,110.638191 248.524056,111.316947 C247.822347,111.992424 246.996036,112.526904 246.0484,112.923665 C245.104044,113.317146 244.126898,113.510608 243.113682,113.510608 C242.746433,113.510608 242.392299,113.487655 242.05784,113.428633 C241.716822,113.37289 241.395479,113.317146 241.083972,113.258124 C240.801977,113.20566 240.674096,113.07122 240.703607,112.858084 C240.729839,112.648227 240.883952,112.543299 241.165948,112.543299 L241.969306,112.543299 C242.733317,112.543299 243.444863,112.428533 244.107224,112.202281 C244.769585,111.979308 245.346691,111.651407 245.838543,111.231693 C246.330396,110.805421 246.720598,110.287337 247.002594,109.667603 C247.28131,109.04459 247.422307,108.326486 247.422307,107.510012 C247.422307,106.74928 247.297705,106.027897 247.045221,105.35242 C246.789458,104.676943 246.438603,104.083441 245.986099,103.578473 C245.536874,103.070226 244.992558,102.663628 244.359708,102.352122 C243.726858,102.040615 243.028428,101.886502 242.267697,101.886502 C241.870936,101.886502 241.500407,101.922571 241.146274,101.99143 C240.79214,102.060289 240.447844,102.155381 240.110105,102.266867 L240.110105,120.02601 C240.110105,120.107985 240.133058,120.271936 240.172406,120.511304 C240.215034,120.750672 240.274056,120.999877 240.342915,121.252361 C240.415053,121.504846 240.474076,121.744214 240.533098,121.970466 C240.588841,122.196718 240.644584,122.337715 240.703607,122.390179 C240.844604,122.449202 241.02495,122.485271 241.254481,122.498387 C241.477454,122.514782 241.661079,122.531177 241.802077,122.560688 C242.139815,122.61971 242.444763,122.665617 242.710364,122.708244 C242.979243,122.75415 243.169426,122.885311 243.284191,123.111563 C243.366166,123.25256 243.366166,123.380442 243.284191,123.491928 C243.195658,123.606694 243.05466,123.659158 242.857919,123.659158 C241.421711,123.659158 239.992061,123.646042 238.565689,123.616531 C237.145876,123.593578 235.712947,123.547672 234.276738,123.491928 C233.994743,123.491928 233.847187,123.380442 233.830792,123.15419 C233.817676,122.931217 233.952116,122.790219 234.234111,122.731197 C234.686615,122.645943 235.044028,122.567246 235.312907,122.498387 C235.578507,122.426249 235.785085,122.301646 235.926083,122.118021 C236.06708,121.934396 236.158893,121.68847 236.20152,121.376964 C236.240868,121.068737 236.263821,120.645744 236.263821,120.107985 L236.263821,102.817742 C236.263821,102.22424 236.112986,101.866828 235.817875,101.738946 C235.526043,101.614343 235.221094,101.532368 234.909588,101.506136 C234.627593,101.479904 234.358714,101.437277 234.106229,101.378254 C233.853745,101.322511 233.653725,101.184793 233.512728,100.955262 C233.401241,100.814264 233.388125,100.686382 233.47338,100.574896 C233.558634,100.463409 233.712748,100.404387 233.935721,100.404387 L234.657104,100.404387 L237.362291,100.404387 C237.673797,100.404387 237.962351,100.414224 238.23123,100.42734 C238.49683,100.440456 238.785383,100.447014 239.093611,100.447014 L240.408495,100.447014 C240.687212,100.447014 240.956091,100.440456 241.208575,100.42734 C241.464338,100.414224 241.746333,100.404387 242.05784,100.404387 C243.097287,100.404387 244.140014,100.463409 245.18602,100.574896 C246.225467,100.686382 247.169823,100.942145 248.015809,101.338906 C248.861795,101.732388 249.547109,102.296378 250.068472,103.027599 C250.586556,103.762098 250.848878,104.758918 250.848878,106.027897 C250.848878,107.044392 250.639021,108.011701 250.216028,108.926546" id="Fill-12" fill="#231916"></path>
                <path d="M274.443682,104.677271 C274.38466,104.874012 274.21743,104.972382 273.935435,104.972382 C273.682951,104.972382 273.528837,104.874012 273.469815,104.677271 C273.273074,103.690288 272.814012,103.063996 272.095908,102.795117 C271.374525,102.529516 270.564608,102.395077 269.666158,102.395077 L268.987402,102.395077 C268.764429,102.395077 268.521782,102.408193 268.269298,102.434425 C268.016814,102.463936 267.747935,102.477052 267.465939,102.477052 L266.619954,102.477052 C266.396981,102.477052 266.262541,102.493447 266.219914,102.522958 C266.177287,102.54919 266.055963,102.536074 265.859222,102.477052 L265.859222,119.983711 C265.859222,120.065686 265.882175,120.229637 265.921524,120.465726 C265.964151,120.708373 266.006778,120.964136 266.049405,121.229736 C266.092032,121.498615 266.141218,121.737983 266.196961,121.951119 C266.252704,122.160976 266.311726,122.279021 266.36747,122.308532 L266.410097,122.308532 C266.521583,122.367554 266.69865,122.406902 266.938018,122.436414 C267.177386,122.462646 267.383964,122.492157 267.551194,122.518389 C267.859421,122.5479 268.147975,122.590527 268.416854,122.642991 C268.685733,122.702014 268.875916,122.843011 268.987402,123.065984 C269.072657,123.210261 269.072657,123.334864 268.987402,123.449629 C268.905427,123.564395 268.751313,123.616859 268.521782,123.616859 C267.085574,123.616859 265.652644,123.603743 264.232831,123.577511 C262.80646,123.547999 261.380089,123.505372 259.940601,123.449629 C259.688117,123.449629 259.553677,123.334864 259.537282,123.111891 C259.524166,122.885639 259.642211,122.744641 259.897974,122.688898 C260.320967,122.633154 260.6751,122.567574 260.957096,122.498715 C261.239091,122.426577 261.448948,122.308532 261.589945,122.138023 C261.730943,121.967514 261.826035,121.737983 261.885057,121.439593 C261.9408,121.144482 261.967032,120.741163 261.967032,120.236195 L261.967032,102.434425 L256.602564,102.434425 C255.979552,102.434425 255.409003,102.634445 254.88764,103.027927 C254.366276,103.421408 253.949842,103.903423 253.638335,104.467414 C253.526849,104.634644 253.35634,104.706782 253.133367,104.677271 C252.907115,104.64776 252.766117,104.549389 252.710374,104.378881 C252.680863,104.296905 252.667747,104.11328 252.667747,103.831285 C252.667747,103.464036 252.739885,103.041043 252.880883,102.562307 C253.021881,102.08357 253.162878,101.631066 253.303876,101.208074 C253.35634,101.067076 253.408804,100.916241 253.451431,100.745733 C253.49078,100.575224 253.539965,100.404715 253.598987,100.237485 C253.65473,100.096488 253.753101,100.004675 253.894098,99.9653271 C254.035096,99.9194209 254.172815,99.9292579 254.317091,99.9817221 C254.428578,100.070256 254.618761,100.145673 254.88764,100.217811 C255.156519,100.28667 255.428677,100.352251 255.710672,100.404715 C255.992668,100.463737 256.268105,100.509643 256.536984,100.552271 C256.802584,100.598177 257.025557,100.617851 257.192787,100.617851 L272.286091,100.617851 C272.427088,100.617851 272.607434,100.591619 272.836965,100.532597 C273.059938,100.476853 273.28619,100.42111 273.512442,100.365367 L273.469815,100.365367 C273.555069,100.309624 273.669835,100.273554 273.810833,100.257159 C273.95183,100.244043 274.102665,100.224369 274.273174,100.194858 C274.640423,100.139115 274.824048,100.263717 274.824048,100.575224 L274.824048,101.250701 C274.824048,102.408193 274.696166,103.54929 274.443682,104.677271" id="Fill-14" fill="#231916"></path>
                <g id="Group-18" transform="translate(277.009131, 99.643223)">
                    <mask id="mask-4" fill="white">
                        <use xlink:href="#path-3"></use>
                    </mask>
                    <g id="Clip-17"></g>
                    <path d="M23.4584501,2.64528573 C22.7665781,3.19616017 22.0320788,3.87163716 21.2582314,4.67499572 C20.484384,5.47507526 19.7072575,6.34401411 18.9334101,7.27525423 C18.1595627,8.20321534 17.4611326,9.12133941 16.8381198,10.0230684 C16.2183861,10.9247974 15.7199759,11.7609461 15.3396102,12.5413515 C14.9592445,13.315199 14.7690617,13.9382117 14.7690617,14.4202269 L14.7690617,21.1422066 C14.7690617,21.9619603 15.0543359,22.4898816 15.6347215,22.7292497 C16.211828,22.9686177 16.8545149,23.0702672 17.559503,23.0473141 C17.8414983,23.0473141 17.9956119,23.1653586 18.0251231,23.4047266 C18.0546342,23.6440947 17.9267526,23.7785343 17.6447574,23.8047664 C16.8282828,23.8637887 16.0150872,23.9031369 15.2117286,23.932648 C14.4083701,23.9621591 13.5984535,23.9752752 12.7819789,23.9752752 C12.132734,23.9752752 11.4867681,23.9621591 10.8342442,23.932648 C10.1882784,23.9031369 9.55542857,23.8211615 8.93241581,23.6801639 L9.23080613,22.9587807 C9.31606051,22.9882918 9.46689518,23.0014079 9.69642619,23.0014079 C10.1194191,23.0014079 10.4178094,22.804667 10.6047132,22.4111852 C10.788338,22.0144245 10.8801504,21.5914316 10.8801504,21.1422066 L10.8801504,14.8432197 C10.8801504,14.449738 10.6735725,13.8627944 10.2669747,13.088947 C9.8570979,12.3118205 9.32589755,11.4461607 8.67993169,10.4886885 C8.03068682,9.53121622 7.30602461,8.54423285 6.50266605,7.52773835 C5.69930749,6.51452286 4.909065,5.58328274 4.13521757,4.737297 C3.35809113,3.89131125 2.63342892,3.1797651 1.95795193,2.60265854 C1.27919592,2.02555199 0.757832616,1.69437152 0.393862004,1.60911715 C0.141377886,1.5533739 0.0266123782,1.42549233 0.0528444944,1.22547245 C0.082355625,1.03201059 0.223353249,0.920524097 0.475837367,0.891012966 C1.66284062,0.831990705 2.84000683,0.79264253 4.007336,0.7631314 C5.17794419,0.736899283 6.3551104,0.720504211 7.53883464,0.720504211 C7.76508664,0.720504211 7.91920032,0.79264253 8.0044547,0.933640155 C8.08970908,1.07463778 8.04708189,1.21235639 7.87657313,1.35335401 C7.81755087,1.38286514 7.70606438,1.45500346 7.53883464,1.56648996 C7.45358026,1.6222332 7.36176786,1.69437152 7.26667643,1.77634689 C7.16502698,1.86488028 7.11584177,1.9599717 7.11584177,2.07473721 C7.11584177,2.24196695 7.31914067,2.68791292 7.72901748,3.40273809 C8.13561528,4.12412128 8.6373045,4.94715392 9.23080613,5.87839405 C9.82102874,6.80963417 10.4473205,7.76054838 11.1096815,8.73113668 C11.7753214,9.70500399 12.358986,10.5280366 12.8672332,11.2067926 L13.2049717,11.6724127 C13.4574558,11.1903976 13.7460091,10.6919874 14.0706316,10.1706241 C14.395254,9.64926074 14.7264345,9.16068758 15.064173,8.71474161 C15.2346817,8.43274636 15.5133979,8.06221772 15.9101587,7.61299273 C16.2183861,7.18999986 16.5594036,6.73093782 16.9266532,6.23908565 C17.2906238,5.74395445 17.6381994,5.25210228 17.9595428,4.7602501 C18.2841652,4.26511891 18.5530444,3.8126149 18.7629013,3.40273809 C18.9760373,2.99614029 19.0809657,2.68135489 19.0809657,2.45182388 C19.0809657,2.22885089 19.0121064,2.04522608 18.8711088,1.90422845 C18.7301112,1.76323083 18.5596024,1.65174433 18.3628616,1.56648996 C18.1366096,1.51074671 18.0382391,1.38942317 18.0644712,1.20907737 C18.0939824,1.02545256 18.23498,0.920524097 18.4874641,0.891012966 C19.0514546,0.831990705 19.589213,0.802479574 20.0974602,0.802479574 L21.7041774,0.802479574 C22.2681679,0.802479574 22.8321584,0.812316617 23.3928698,0.825432675 C23.9568603,0.841827748 24.5208508,0.861501835 25.0848413,0.891012966 L25.2127229,1.60911715 C24.7339868,1.75011477 24.1470432,2.09441129 23.4584501,2.64528573" id="Fill-16" fill="#231916" mask="url(#mask-4)"></path>
                </g>
                <polygon id="Fill-19" fill="#231916" points="166.423435 146.401419 166.423435 138.194046 167.197282 138.194046 167.197282 141.715707 172.053503 141.715707 172.053503 138.194046 172.82735 138.194046 172.82735 146.401419 172.053503 146.401419 172.053503 142.374789 167.197282 142.374789 167.197282 146.401419"></polygon>
                <g id="Group-23" transform="translate(179.743999, 137.886094)">
                    <mask id="mask-6" fill="white">
                        <use xlink:href="#path-5"></use>
                    </mask>
                    <g id="Clip-22"></g>
                    <path d="M4.1280561,8.07003499 C4.65925645,8.07003499 5.11503947,7.97166456 5.49868417,7.76836566 C5.88560788,7.56834577 6.20039327,7.29946658 6.44631936,6.9650071 C6.69224545,6.63054762 6.87587026,6.24034489 6.99391479,5.80423596 C7.11195931,5.361569 7.17098157,4.89922795 7.17098157,4.42377085 C7.17098157,3.85322232 7.10212227,3.34497507 6.96112464,2.88919205 C6.82012702,2.43668805 6.6135491,2.05304335 6.35122794,1.73169993 C6.08562777,1.41363552 5.76100533,1.17098845 5.38063964,1.0037587 C5.00027396,0.836528964 4.57728109,0.754553601 4.105103,0.754553601 C3.58046067,0.754553601 3.12467766,0.856203051 2.74431197,1.05950195 C2.36066727,1.26607987 2.04588188,1.53823807 1.79995579,1.87597657 C1.54747167,2.21371506 1.36712587,2.60391779 1.25236037,3.04658475 C1.13103683,3.4859727 1.07201457,3.94503473 1.07201457,4.42377085 C1.07201457,4.909065 1.13103683,5.37468506 1.25236037,5.814073 C1.36712587,6.25346095 1.54747167,6.64038466 1.79995579,6.97812316 C2.04588188,7.31258264 2.36066727,7.57818281 2.74431197,7.77492368 C3.12467766,7.97166456 3.5870187,8.07003499 4.1280561,8.07003499 M0.298167141,4.42377085 C0.298167141,3.82371119 0.380142504,3.25972069 0.54409323,2.73507837 C0.708043956,2.21043605 0.947412016,1.75465303 1.26547642,1.3644503 C1.58681985,0.974247574 1.98030159,0.662741195 2.45247968,0.436489193 C2.92465777,0.206958177 3.46569517,0.0921926686 4.0821499,0.0921926686 C4.72155773,0.0921926686 5.28226921,0.206958177 5.76428434,0.429931164 C6.24629948,0.652904151 6.64961826,0.961131516 6.97096169,1.35133424 C7.29230511,1.74153697 7.5382312,2.20387802 7.69890291,2.73179936 C7.86285363,3.25972069 7.944829,3.82371119 7.944829,4.42377085 C7.944829,5.01399346 7.86285363,5.57142593 7.69890291,6.08951022 C7.5382312,6.61415255 7.29558412,7.06993556 6.97751971,7.46013829 C6.65617629,7.85362003 6.25941554,8.1618474 5.78067942,8.3880994 C5.3019433,8.61763042 4.74778984,8.73239592 4.11821905,8.73239592 C3.48536925,8.73239592 2.9312158,8.61763042 2.45247968,8.3880994 C1.97374356,8.1618474 1.5769828,7.85362003 1.25563938,7.46013829 C0.937574972,7.06993556 0.698206912,6.61415255 0.537535201,6.08951022 C0.376863489,5.57142593 0.298167141,5.01399346 0.298167141,4.42377085" id="Fill-21" fill="#231916" mask="url(#mask-6)"></path>
                </g>
                <polygon id="Fill-24" fill="#231916" points="194.184884 138.194046 200.155969 138.194046 200.155969 138.856407 197.558989 138.856407 197.558989 146.401419 196.781863 146.401419 196.781863 138.856407 194.184884 138.856407"></polygon>
                <polygon id="Fill-26" fill="#231916" points="206.961236 146.401419 206.961236 138.194046 212.420795 138.194046 212.420795 138.856407 207.735083 138.856407 207.735083 141.820636 211.961733 141.820636 211.961733 142.479718 207.735083 142.479718 207.735083 145.742337 212.532281 145.742337 212.532281 146.401419"></polygon>
                <polygon id="Fill-28" fill="#231916" points="219.622822 146.401419 219.622822 138.194046 220.39667 138.194046 220.39667 145.742337 224.797107 145.742337 224.797107 146.401419"></polygon>
                <path d="M202.270278,62.2628902 L201.575126,62.2628902 C201.401339,63.6269603 200.591422,64.466388 199.529021,64.8598697 C198.715826,65.1615391 197.400941,65.1976082 196.853346,65.1976082 L196.853346,51.825787 C197.400941,51.825787 198.715826,51.8618562 199.529021,52.1602465 C200.591422,52.5570073 201.401339,53.396435 201.575126,54.760505 L202.270278,54.760505 L201.925981,50.7469912 L195.617157,50.7469912 L189.308333,50.7469912 L188.960758,54.760505 L189.655909,54.760505 C189.829696,53.396435 190.639613,52.5570073 191.702014,52.1602465 C192.515209,51.8618562 193.830094,51.825787 194.37769,51.825787 L194.37769,65.1976082 C193.830094,65.1976082 192.515209,65.1615391 191.702014,64.8598697 C190.639613,64.466388 189.829696,63.6269603 189.655909,62.2628902 L188.960758,62.2628902 L189.308333,66.276404 L194.37769,66.276404 L195.617157,66.276404 L196.853346,66.276404 L201.925981,66.276404 L202.270278,62.2628902 Z" id="Fill-30" fill="#231916"></path>
                <path d="M206.157549,36.8183934 C206.157549,37.9463744 205.416492,38.7989181 204.29179,38.7989181 L200.150395,38.7989181 L200.170069,28.827435 C200.170069,27.702733 201.081635,26.7846089 202.212895,26.7846089 L206.157549,26.7846089 L206.157549,36.8183934 Z M191.129826,38.775965 L187.073685,38.775965 C185.945704,38.775965 185.030859,37.86112 185.030859,36.733139 L185.030859,26.804283 L189.087,26.804283 C190.214981,26.804283 191.129826,27.7191281 191.129826,28.8471091 L191.129826,38.775965 Z M191.129826,40.1892203 L193.920267,40.1957783 L193.920267,30.6210559 C193.920267,30.2603643 193.926825,29.9422999 193.939941,29.6439096 L193.939941,28.4536273 C193.939941,27.5650144 194.667882,26.8370732 195.559774,26.8370732 L195.759794,26.8370732 C196.651686,26.8370732 197.376348,27.5650144 197.376348,28.4536273 L197.376348,30.6210559 L197.376348,35.4641604 L197.376348,40.1957783 L200.170069,40.1892203 L203.69173,40.2056154 C205.062358,40.2744747 206.157549,41.3958976 206.157549,42.7861998 L206.157549,51.8002107 L206.157549,70.8020998 C206.157549,72.5006294 205.809974,74.2024379 205.013173,75.7042265 C204.731178,76.2387059 204.416393,76.710884 204.095049,76.9699261 C202.121082,78.5635272 199.402779,78.6651766 199.402779,78.6651766 L199.402779,79.7538095 L215.427323,79.7538095 L215.427323,79.6816711 L215.43716,79.6816711 L215.43716,78.6356655 C215.43716,78.6356655 212.702462,78.4946679 210.725216,76.9010668 C210.367804,76.6125136 210.020228,76.035407 209.71528,75.3959992 C208.987339,73.8712574 208.669274,72.4711182 208.669274,70.7857048 L208.665995,27.9683332 L208.669274,27.9716122 L208.669274,27.9650542 C208.669274,27.9650542 209.626747,28.614299 210.361246,30.0832975 C210.777681,30.9227253 211.11214,31.994963 211.256417,33.5459369 L212.246679,33.5459369 L211.7122,24.3614172 L197.182886,24.3646962 L197.182886,23.9712145 C197.182886,22.6235395 197.320605,21.7775538 197.599321,21.4234202 C198.015756,20.8823828 198.684675,20.6135036 199.59952,20.6135036 L200.409437,20.6135036 L200.409437,20.0003279 L190.795366,20.0003279 L190.795366,20.6135036 L191.592167,20.6135036 C192.120088,20.6135036 192.628335,20.7446642 193.113629,21.0102644 C193.454647,21.2070052 193.680899,21.4463733 193.792385,21.7218105 C193.933383,22.0825021 194.005521,22.8333964 194.005521,23.9712145 L194.005521,24.3646962 L179.463092,24.3646962 L178.935171,33.5459369 L179.984455,33.5459369 C180.213986,30.7915647 181.23376,29.0110598 182.56504,27.9781702 L182.558482,70.7857048 C182.558482,72.0481254 182.312556,73.779445 181.801029,74.9336581 C181.437059,75.7501327 180.981276,76.5862814 180.509098,76.9666471 C178.535131,78.5602482 175.784038,78.6586186 175.784038,78.6586186 L175.784038,79.7505305 L191.824977,79.7505305 L191.824977,78.6586186 L191.792187,78.6586186 C191.674142,78.6520606 189.034535,78.4815518 187.099917,76.9207409 C186.781852,76.6616988 186.467067,76.1927997 186.185072,75.6648784 C185.39155,74.1663687 185.047254,72.4776763 185.047254,70.7824257 L185.047254,43.064916 C185.050533,43.0321259 185.057091,43.0157308 185.06037,42.9829407 L185.06037,42.7861998 C185.06037,41.481152 186.027679,40.4121933 187.283542,40.2318475 L191.129826,40.1892203 Z" id="Fill-32" fill="#231916"></path>
            </g>
        </g>
    </g>
</svg>