<?xml version="1.0" encoding="UTF-8" standalone="no"?>
<svg width="393px" height="164px" viewBox="0 0 393 164" version="1.1" xmlns="http://www.w3.org/2000/svg" xmlns:xlink="http://www.w3.org/1999/xlink">
    <!-- Generator: Sketch 45.2 (43514) - http://www.bohemiancoding.com/sketch -->
    <title>ximan</title>
    <desc>Created with Sketch.</desc>
    <defs>
        <polygon id="path-1" points="0.178094196 0.534101563 8.79167076 0.534101563 8.79167076 5.68222344 0.178094196 5.68222344 0.178094196 0.534101563"></polygon>
        <polygon id="path-3" points="8.79167076 0.239919643 8.79167076 5.38896429 0.178094196 5.38896429 0.178094196 0.239919643 8.79167076 0.239919643"></polygon>
        <polygon id="path-5" points="0 125.88058 87.2269386 125.88058 87.2269386 0.534101563 0 0.534101563"></polygon>
    </defs>
    <g id="Welcome" stroke="none" stroke-width="1" fill="none" fill-rule="evenodd">
        <g id="About-us" transform="translate(-1443.000000, -6145.000000)">
            <g id="ximan" transform="translate(1443.000000, 6145.000000)">
                <rect id="Rectangle-2-Copy-3" fill="#D8D8D8" x="0.906412957" y="0" width="392.093587" height="164"></rect>
                <polygon id="Fill-1" fill="#211613" points="190.758277 21.6529576 190.758277 23.7845513 176.554572 23.7845513 176.554572 29.3696038 190.758277 29.3696038 190.758277 31.2635848 176.554572 31.2635848 176.554572 36.8486373 211.509019 36.8486373 211.509019 31.2635848 196.343329 31.2635848 196.343329 29.3696038 211.509019 29.3696038 211.509019 23.7845513 196.343329 23.7845513 196.343329 21.6529576"></polygon>
                <path d="M201.329967,119.725648 L205.923044,119.725648 L205.923044,115.700073 L201.329967,115.700073 L201.329967,119.725648 Z M191.151837,119.725648 L195.744914,119.725648 L195.744914,115.700073 L191.151837,115.700073 L191.151837,119.725648 Z M182.138702,110.117328 L176.55365,110.117328 L176.55365,115.700073 L176.55365,118.49606 L182.138702,118.49606 L182.138702,115.700073 L185.569092,115.700073 L185.569092,119.725648 L176.55365,119.725648 L176.55365,125.308394 L211.508096,125.308394 L211.508096,124.950821 L211.508096,119.725648 L211.508096,115.700073 L211.508096,110.117328 L205.923044,110.117328 L182.138702,110.117328 Z" id="Fill-2" fill="#211613"></path>
                <path d="M176.554803,126.508684 L176.554803,127.385314 L176.554803,132.09143 L176.554803,139.711185 L176.554803,139.720413 L179.992113,140.400954 L176.554803,141.072268 L176.554803,146.652706 L194.013571,143.183099 L211.506943,146.652706 L211.509249,141.069961 L207.970435,140.407875 L211.474646,139.711185 L211.509249,139.711185 L211.509249,139.704264 L211.509249,134.264548 L211.509249,132.09143 L211.509249,127.385314 L211.509249,126.508684 L176.554803,126.508684 Z M182.137549,135.597947 L182.137549,132.09143 L205.92189,132.09143 L205.92189,135.351107 L193.649078,137.741076 L182.137549,135.597947 Z" id="Fill-3" fill="#211613"></path>
                <path d="M169.547535,38.4641731 L166.859973,38.4641731 L161.272614,38.4641731 L158.582746,38.4641731 L153.163791,38.4641731 L153,38.4641731 L153,69.2661642 L153,73.2133037 L153,74.8512166 L175.132587,74.8512166 L175.132587,73.2133037 L175.132587,69.2661642 L175.132587,44.0469186 L175.132587,38.4641731 L169.547535,38.4641731 Z M166.859973,53.8213372 L169.547535,53.8213372 L169.547535,44.0469186 L166.859973,44.0469186 L166.859973,53.8213372 Z M158.582746,53.8213372 L161.272614,53.8213372 L161.272614,44.0469186 L158.582746,44.0469186 L158.582746,53.8213372 Z M166.859973,69.2661642 L169.547535,69.2661642 L169.547535,59.4063896 L166.859973,59.4063896 L166.859973,69.2661642 Z M158.582746,69.2661642 L161.272614,69.2661642 L161.272614,59.4063896 L158.582746,59.4063896 L158.582746,69.2661642 Z" id="Fill-4" fill="#211613"></path>
                <polygon id="Fill-5" fill="#211613" points="182.138241 38.4646345 176.555495 38.4646345 176.555495 44.04738 176.555495 47.120197 182.138241 47.120197 182.138241 44.04738 205.924889 44.04738 205.924889 48.7350407 176.555495 48.7350407 176.555495 54.3177863 211.507635 54.3177863 211.507635 51.5264135 211.507635 48.7350407 211.507635 44.04738 211.507635 38.4646345 205.924889 38.4646345"></polygon>
                <polygon id="Fill-6" fill="#211613" points="153 81.8045031 157.775324 81.8045031 157.775324 76.2217576 153 76.2217576"></polygon>
                <polygon id="Fill-7" fill="#211613" points="158.785754 81.8045031 163.561078 81.8045031 163.561078 76.2217576 158.785754 76.2217576"></polygon>
                <polygon id="Fill-8" fill="#211613" points="164.571509 81.8045031 169.346833 81.8045031 169.346833 76.2217576 164.571509 76.2217576"></polygon>
                <polygon id="Fill-9" fill="#211613" points="170.357263 81.8045031 175.132587 81.8045031 175.132587 76.2217576 170.357263 76.2217576"></polygon>
                <polygon id="Fill-10" fill="#211613" points="153.011535 146.615104 157.786858 146.615104 157.786858 141.030051 153.011535 141.030051"></polygon>
                <polygon id="Fill-11" fill="#211613" points="158.797289 146.615104 163.57492 146.615104 163.57492 141.030051 158.797289 141.030051"></polygon>
                <polygon id="Fill-12" fill="#211613" points="164.583044 146.615104 169.358367 146.615104 169.358367 141.030051 164.583044 141.030051"></polygon>
                <polygon id="Fill-13" fill="#211613" points="170.368798 146.615104 175.146429 146.615104 175.146429 141.030051 170.368798 141.030051"></polygon>
                <polygon id="Fill-14" fill="#211613" points="203.450026 55.9490092 197.86728 55.9490092 197.86728 58.7126989 188.93258 58.7126989 188.93258 55.9490092 183.347528 55.9490092 183.347528 58.7126989 176.55365 58.7126989 176.55365 64.2977513 211.508096 64.2977513 211.508096 58.7126989 203.450026 58.7126989"></polygon>
                <polygon id="Fill-15" fill="#211613" points="182.138241 65.951582 176.555495 65.951582 176.555495 71.5343276 176.555495 74.851678 182.138241 74.851678 182.138241 71.5343276 205.924889 71.5343276 205.924889 76.2219883 176.555495 76.2219883 176.555495 81.8047338 211.507635 81.8047338 211.507635 79.013361 211.507635 76.2219883 211.507635 71.5343276 211.507635 65.951582 205.924889 65.951582"></polygon>
                <polygon id="Fill-16" fill="#211613" points="154.152306 21.6529576 154.152306 23.7845513 154.152306 29.3696038 154.152306 32.1102243 153.001153 32.1102243 153.001153 36.8486373 154.152306 36.8486373 158.706166 36.8486373 159.737359 36.8486373 159.737359 29.3696038 169.548688 29.3696038 169.548688 36.8486373 175.131434 36.8486373 175.131434 23.7845513 172.340061 23.7845513 169.548688 23.7845513 159.737359 23.7845513 159.737359 21.6529576"></polygon>
                <path d="M169.559992,103.271544 L166.870124,103.271544 L161.285071,103.271544 L158.595203,103.271544 L154.16361,103.271544 L153.012457,103.271544 L153.012457,133.981258 L153.012457,138.022981 L153.012457,139.672429 L175.145044,139.672429 L175.145044,138.022981 L175.145044,133.981258 L175.145044,108.856596 L175.145044,103.271544 L169.559992,103.271544 Z M166.870124,118.628708 L169.557685,118.628708 L169.557685,108.856596 L166.870124,108.856596 L166.870124,118.628708 Z M158.595203,118.628708 L161.285071,118.628708 L161.285071,108.856596 L158.595203,108.856596 L158.595203,118.628708 Z M166.870124,133.981258 L169.557685,133.981258 L169.557685,124.21376 L166.870124,124.21376 L166.870124,133.981258 Z M158.595203,133.981258 L161.285071,133.981258 L161.285071,124.21376 L158.595203,124.21376 L158.595203,133.981258 Z" id="Fill-17" fill="#211613"></path>
                <polygon id="Fill-18" fill="#211613" points="154.164764 86.4644808 154.164764 88.5937676 154.164764 94.1788201 154.164764 96.9194406 153.013611 96.9194406 153.013611 101.655547 154.164764 101.655547 158.718623 101.655547 159.747509 101.655547 159.747509 94.1788201 169.561145 94.1788201 169.561145 101.655547 175.143891 101.655547 175.143891 88.5937676 172.352518 88.5937676 169.561145 88.5937676 159.747509 88.5937676 159.747509 86.4644808"></polygon>
                <polygon id="Fill-19" fill="#211613" points="176.554572 88.6355229 176.554572 94.2182684 176.554572 101.697302 182.137318 101.697302 182.137318 94.2182684 205.923966 94.2182684 205.923966 96.0776456 183.740627 96.0776456 183.740627 101.660391 205.923966 101.660391 205.923966 103.312146 176.554572 103.312146 176.554572 108.894891 205.923966 108.894891 211.506712 108.894891 211.506712 103.312146 211.506712 101.660391 211.506712 96.0776456 211.506712 94.2182684 211.506712 89.4429448 211.506712 88.6355229 182.137318 88.6355229"></polygon>
                <g id="Group-42" transform="translate(153.000000, 20.773741)">
                    <g id="Group-22" transform="translate(78.435268, 0.000000)">
                        <mask id="mask-2" fill="white">
                            <use xlink:href="#path-1"></use>
                        </mask>
                        <g id="Clip-21"></g>
                        <path d="M0.884011607,0.533178795 L1.31079174,0.740801562 C0.964753795,1.28292768 0.641785045,2.18493326 0.641785045,3.082325 C0.641785045,4.09967656 1.04318906,5.14009732 2.30276719,5.14009732 C3.44469241,5.14009732 3.78150268,4.26116094 4.29133192,3.1884433 C4.84499263,2.00037969 5.36174263,0.971493527 6.73666674,0.971493527 C8.22693683,0.971493527 8.79213214,2.19646786 8.79213214,3.48834286 C8.79213214,4.21732946 8.61911317,4.94400915 8.33997589,5.46306607 L7.91550268,5.31311629 C8.21540223,4.69024799 8.33074821,4.08814196 8.33074821,3.49987746 C8.33074821,2.33257612 7.87859196,1.51361964 6.74820134,1.51361964 C5.5578308,1.51361964 5.21409978,2.4133183 4.68120134,3.51141205 C4.04679844,4.85173237 3.57387991,5.68222344 2.27969799,5.68222344 C0.699458036,5.68222344 0.178094196,4.42495223 0.178094196,3.09616652 C0.178094196,2.11572567 0.466459152,1.10990871 0.884011607,0.533178795" id="Fill-20" fill="#000000" mask="url(#mask-2)"></path>
                    </g>
                    <path d="M81.7659984,7.63872199 L87.1342004,7.63872199 L87.1342004,8.15777891 L81.777533,8.14624431 C80.1626893,8.14624431 79.0645955,9.14975435 79.0645955,10.6746282 C79.0645955,12.1879675 80.1626893,13.1914776 81.777533,13.1914776 L87.1342004,13.179943 L87.1342004,13.6989999 L81.7659984,13.6989999 C79.8743243,13.6989999 78.6147462,12.4878671 78.6147462,10.6746282 C78.6147462,8.8498548 79.8743243,7.63872199 81.7659984,7.63872199" id="Fill-23" fill="#000000"></path>
                    <g id="Group-27" transform="translate(78.435268, 15.148438)">
                        <mask id="mask-4" fill="white">
                            <use xlink:href="#path-3"></use>
                        </mask>
                        <g id="Clip-26"></g>
                        <path d="M0.884011607,0.239919643 L1.31079174,0.44984933 C0.964753795,0.989668527 0.641785045,1.89167411 0.641785045,2.79137277 C0.641785045,3.80872433 1.04318906,4.84683817 2.30276719,4.84683817 C3.44469241,4.84683817 3.78150268,3.97020871 4.29133192,2.89518415 C4.84499263,1.70712054 5.36174263,0.678234375 6.73666674,0.678234375 C8.22693683,0.678234375 8.79213214,1.90320871 8.79213214,3.19508371 C8.79213214,3.92407031 8.61911317,4.65075 8.33997589,5.17211384 L7.91550268,5.01985714 C8.21540223,4.39698884 8.33074821,3.79718973 8.33074821,3.2066183 C8.33074821,2.04162388 7.87859196,1.22266741 6.74820134,1.22266741 C5.5578308,1.22266741 5.21409978,2.12236607 4.68120134,3.22045982 C4.04679844,4.55847321 3.57387991,5.38896429 2.27969799,5.38896429 C0.699458036,5.38896429 0.178094196,4.13169308 0.178094196,2.80290737 C0.178094196,1.82246652 0.466459152,0.818956473 0.884011607,0.239919643" id="Fill-25" fill="#000000" mask="url(#mask-4)"></path>
                    </g>
                    <polygon id="Fill-28" fill="#000000" points="87.1344311 22.4939003 87.1344311 23.0152642 83.2541923 23.0152642 83.2541923 28.0351213 87.1344311 28.0351213 87.1344311 28.5564852 78.7072537 28.5564852 78.7072537 28.0351213 82.7928084 28.0351213 82.7928084 23.0152642 78.7072537 23.0152642 78.7072537 22.4939003"></polygon>
                    <mask id="mask-6" fill="white">
                        <use xlink:href="#path-5"></use>
                    </mask>
                    <g id="Clip-31"></g>
                    <polygon id="Fill-30" fill="#000000" mask="url(#mask-6)" points="78.7074844 31.1330837 87.1346618 31.1330837 87.1346618 30.6140268 78.7074844 30.6140268"></polygon>
                    <path d="M70.6503368,5.50966585 C71.965281,5.50966585 72.8303759,4.54998728 72.8303759,3.02742031 L72.8303759,1.42180424 L68.5002877,1.42180424 L68.5002877,3.1312317 C68.5002877,4.59612567 69.3561549,5.50966585 70.6503368,5.50966585 L70.6503368,5.50966585 Z M64.8645824,5.78649621 L68.0988837,3.90404978 C68.0642799,3.70796161 68.0389038,3.50033884 68.0389038,3.28118147 L68.0389038,1.42180424 L64.8645824,1.42180424 L64.8645824,0.902747321 L73.2940667,0.902747321 L73.2940667,3.16352857 C73.2940667,4.85219375 72.2421114,6.03795045 70.6618714,6.03795045 C69.4830355,6.03795045 68.6040991,5.40585446 68.234992,4.40234442 L64.8645824,6.42320603 L64.8645824,5.78649621 Z" id="Fill-32" fill="#000000" mask="url(#mask-6)"></path>
                    <polygon id="Fill-33" fill="#000000" mask="url(#mask-6)" points="73.2929133 7.77598371 73.2929133 12.3713676 72.8315294 12.3713676 72.8315294 8.29734754 69.4126744 8.29734754 69.4126744 12.0830027 68.9512905 12.0830027 68.9512905 8.29734754 65.3271198 8.29734754 65.3271198 12.4313475 64.8657358 12.4313475 64.8657358 7.77598371"></polygon>
                    <path d="M65.4777616,13.8789396 L65.9045417,14.0865624 C65.5585038,14.6286885 65.235535,15.5306941 65.235535,16.4280858 C65.235535,17.4454374 65.6369391,18.4858581 66.8965172,18.4858581 C68.0384424,18.4858581 68.3752527,17.6069218 68.8850819,16.5342041 C69.4387426,15.3461405 69.9554926,14.3172544 71.3304167,14.3172544 C72.8206868,14.3172544 73.3858821,15.5422287 73.3858821,16.8341037 C73.3858821,17.5630903 73.2128632,18.28977 72.9337259,18.8088269 L72.5092527,18.6588771 C72.8091522,18.0360088 72.9244982,17.4339028 72.9244982,16.8456383 C72.9244982,15.6783369 72.472342,14.8593805 71.3419513,14.8593805 C70.1515808,14.8593805 69.8078498,15.7590791 69.2749513,16.8571729 C68.6405484,18.1974932 68.1676299,19.0279843 66.873448,19.0279843 C65.293208,19.0279843 64.7718442,17.7707131 64.7718442,16.4419273 C64.7718442,15.4614865 65.0602092,14.4556695 65.4777616,13.8789396" id="Fill-34" fill="#000000" mask="url(#mask-6)"></path>
                    <polygon id="Fill-35" fill="#000000" mask="url(#mask-6)" points="72.831068 22.7169795 72.831068 19.8171815 73.2924519 19.8171815 73.2924519 26.1127652 72.831068 26.1127652 72.831068 23.2360364 64.8652744 23.2360364 64.8652744 22.7169795"></polygon>
                    <path d="M72.4728033,29.2005771 L67.9027955,27.338893 L67.9027955,31.0599544 L72.4728033,29.2005771 Z M67.4391047,31.2560425 L67.4391047,27.1681809 L64.8645824,26.1162256 L64.8645824,25.5971686 L73.5247587,29.1429041 L73.5247587,29.2674778 L64.8645824,32.8132133 L64.8645824,32.2941564 L67.4391047,31.2560425 Z" id="Fill-36" fill="#000000" mask="url(#mask-6)"></path>
                    <path d="M67.9244806,33.7987294 L73.2926826,33.7987294 L73.2926826,34.3177863 L67.9360152,34.3062517 C66.3211714,34.3062517 65.2230777,35.3097617 65.2230777,36.8346356 C65.2230777,38.3479749 66.3211714,39.3514849 67.9360152,39.3514849 L73.2926826,39.3399503 L73.2926826,39.8590073 L67.9244806,39.8590073 C66.0328065,39.8590073 64.7732283,38.6478744 64.7732283,36.8346356 C64.7732283,35.0098622 66.0328065,33.7987294 67.9244806,33.7987294" id="Fill-37" fill="#000000" mask="url(#mask-6)"></path>
                    <path d="M70.6503368,46.5250823 C71.965281,46.5250823 72.8303759,45.5677106 72.8303759,44.0428367 L72.8303759,42.4395276 L68.5002877,42.4395276 L68.5002877,44.1466481 C68.5002877,45.6115421 69.3561549,46.5250823 70.6503368,46.5250823 L70.6503368,46.5250823 Z M64.8645824,46.8019126 L68.0988837,44.9217731 C68.0642799,44.7256849 68.0389038,44.5157552 68.0389038,44.2965979 L68.0389038,42.4395276 L64.8645824,42.4395276 L64.8645824,41.9181637 L73.2940667,41.9181637 L73.2940667,44.1812519 C73.2940667,45.8676102 72.2421114,47.0556738 70.6618714,47.0556738 C69.4830355,47.0556738 68.6040991,46.4212709 68.234992,45.4177608 L64.8645824,47.4386224 L64.8645824,46.8019126 Z" id="Fill-38" fill="#000000" mask="url(#mask-6)"></path>
                    <path d="M72.4728033,51.587156 L67.9027955,49.7277788 L67.9027955,53.4465333 L72.4728033,51.587156 Z M67.4391047,53.6426214 L67.4391047,49.5547598 L64.8645824,48.5051114 L64.8645824,47.9837475 L73.5247587,51.529483 L73.5247587,51.6563636 L64.8645824,55.1997922 L64.8645824,54.6830422 L67.4391047,53.6426214 Z" id="Fill-39" fill="#000000" mask="url(#mask-6)"></path>
                    <polygon id="Fill-40" fill="#000000" mask="url(#mask-6)" points="73.2929133 62.9168998 64.6465785 62.9168998 64.6465785 62.8015538 72.208661 56.9604333 64.8657358 56.9604333 64.8657358 56.4390694 73.5143776 56.4390694 73.5143776 56.5567223 65.9499881 62.3978429 73.2929133 62.3978429"></polygon>
                    <polygon id="Fill-41" fill="#000000" mask="url(#mask-6)" points="72.831068 67.2400672 72.831068 64.3402692 73.2924519 64.3402692 73.2924519 70.6358529 72.831068 70.6358529 72.831068 67.7591241 64.8652744 67.7591241 64.8652744 67.2400672"></polygon>
                </g>
            </g>
        </g>
    </g>
</svg>